<?xml version="1.0" encoding="utf-8"?>
<!-- Generator: Adobe Illustrator 22.1.0, SVG Export Plug-In . SVG Version: 6.00 Build 0)  -->
<svg version="1.1" id="Layer_1" xmlns="http://www.w3.org/2000/svg" xmlns:xlink="http://www.w3.org/1999/xlink" x="0px" y="0px"
	 viewBox="0 0 192.1 131.5" style="enable-background:new 0 0 192.1 131.5;" xml:space="preserve">
<style type="text/css">
	.st0{fill:#CCD9E8;}
	.st1{fill:#3EA7A3;}
	.st2{fill:#5DC9C4;}
	.st3{fill:#58C592;}
	.st4{fill:#3CB17E;}
	.st5{fill:none;}
	.st6{fill:#342F90;}
	.st7{fill:#1C3F95;}
	.st8{fill:#2B61D0;}
	.st9{fill:#1C3F95;}
</style>
<title>OptiFare</title>
<g id="Layer_2_1_">
	<g id="Layer_1-2">
		<path class="st0" d="M26.9,37L26.9,37c0-0.3,0-0.7,0-1L57,43.4c0.7,0.2,1.2,0.8,1.2,1.6v2.8l-33.5-0.5
			C25.7,43.1,26.4,39.3,26.9,37"/>
		<path class="st1" d="M52.7,57.2c0.8,0,1.6,1.2,1.8,2.7l0,0c0,0.2,0,0.4,0,0.6c0,1.9-1,3.4-1.8,3.4S51,62.6,50.9,61
			c0-0.2,0-0.3,0-0.5C50.9,58.5,51.9,57.2,52.7,57.2"/>
		<path class="st1" d="M30.8,59.2c1.4,0,2.7,2.2,2.7,4.6c0,0.1,0,0.2,0,0.3v0.1c-0.1,2.3-1.3,4.3-2.7,4.3c-1.1,0-2.2-1.4-2.6-3.2
			c-0.1-0.5-0.1-0.9-0.1-1.4C28.1,61.3,29.3,59.2,30.8,59.2"/>
		<path class="st1" d="M10,67.8h2.5C11.9,68.5,10.8,68.5,10,67.8C10.1,67.9,10,67.8,10,67.8"/>
		<path class="st2" d="M24.2,49.4l34.1,0.5v6.8c0,0.7-0.5,1.4-1.2,1.6l-0.5,0.1c-0.6-2.1-2.1-3.5-3.8-3.5c-2.2,0-4,2.3-4.1,5.3
			c-4.6,1-9,1.9-13,2.6c-0.3-3.4-2.3-5.9-4.9-5.9c-2.8,0-4.9,3-4.9,6.9c0,0.2,0,0.4,0,0.6c-2.9,0.4-5.4,0.7-7.6,0.8
			c0.4-0.4,0.7-0.9,0.9-1.4C21.1,60.1,22.8,54.6,24.2,49.4"/>
		<path class="st3" d="M17.3,35.1c2.9-0.4,5.2-0.4,6.7,0.2c0.5,0.2,0.8,0.8,0.7,1.3c-0.1,0.7-0.3,1.8-0.6,3h-5.5
			c-0.6,0-1.1,0.5-1.1,1.1v5.4c0,0.6,0.5,1.1,1.1,1.1c0.6,0,1.1-0.5,1.1-1.1v-4.3h3.8c-0.6,2.9-1.4,6.4-2.4,10
			c-8.5,1.9-12.8,1.8-14.9,1.3c-0.6-0.1-1.2-0.3-1.7-0.6c1.1-4.5,3-8.9,5.5-12.8C11.7,37.2,14.4,35.5,17.3,35.1"/>
		<path class="st4" d="M20.5,54.2c-0.3,1.1-0.7,2.1-1,3.1l0,0l-5.3,2.2c-1.3,0.5-0.7,2.7,0.6,2.2l3.7-1.5c-0.4,0.9-0.8,1.8-1.2,2.7
			c-0.6,1.2-1.6,2.1-2.9,2.5c-0.5,0.2-1.1,0.3-1.6,0.3H8.5H8.1c-2.6-0.2-4.7-2.3-4.8-4.9l2.4,1c0.6,0.2,1.2-0.2,1.4-0.8c0,0,0,0,0,0
			c0.2-0.6-0.2-1.2-0.8-1.4l-2.8-1.2c0.1-1.1,0.3-2.3,0.6-3.6c1.7,0.7,3.5,0.9,5.3,0.9C13.1,55.5,16.9,55,20.5,54.2"/>
		<rect x="0.8" y="32.5" class="st5" width="59.9" height="38"/>
		<path class="st6" d="M2.2,39.5h5.4c0.2-0.4,0.4-0.7,0.7-1.1c2-3,5.1-5.1,8.7-5.7c3.2-0.5,5.8-0.4,7.7,0.3l32.9,8.1
			c1.7,0.4,2.9,2,2.9,3.7v11.8c0,1.8-1.2,3.3-2.9,3.7l-0.7,0.2c0,3.1-1.8,5.5-4.1,5.5c-1.8,0-3.3-1.5-3.9-3.7
			c-4.7,1-9.2,1.9-13.3,2.7c-0.4,3.2-2.4,5.5-4.8,5.5c-2,0-3.7-1.6-4.5-4c-3.6,0.5-7.3,0.8-10.9,0.9c-0.9,1.9-2.4,3.1-4.1,3.1
			c-1.8-0.1-3.4-1.3-4.1-2.9c-3.8-0.7-6.5-4.2-6.1-8.1c0-0.2,0-0.5,0.1-0.7l0,0c0.6-6,2.3-11.8,5.1-17.2h-3v4.3
			c-0.1,0.6-0.6,1.1-1.2,1c-0.5,0-1-0.5-1-1v-5.4C1.1,40,1.6,39.5,2.2,39.5 M58.2,45c0-0.7-0.5-1.4-1.2-1.6L26.9,36c0,0.3,0,0.7,0,1
			l0,0c-0.5,2.3-1.2,6.1-2.2,10.2l33.5,0.5L58.2,45z M50.9,61c0.1,1.6,0.9,2.9,1.8,2.9s1.8-1.4,1.8-3.4c0-0.2,0-0.4,0-0.6l0,0
			c-0.2-1.5-1-2.7-1.8-2.7s-1.8,1.4-1.8,3.3C50.9,60.7,50.9,60.9,50.9,61 M28.2,65.2c0.4,1.8,1.4,3.2,2.6,3.2c1.4,0,2.6-1.9,2.7-4.3
			v-0.1c0-0.1,0-0.2,0-0.3c0-2.5-1.3-4.6-2.7-4.6s-2.7,2.1-2.7,4.6C28.1,64.3,28.1,64.7,28.2,65.2 M25.9,64.4c0-0.2,0-0.4,0-0.6
			c0-3.8,2.2-6.9,4.9-6.9c2.5,0,4.6,2.5,4.9,5.9c4-0.7,8.4-1.6,13-2.6c0.1-3,1.8-5.3,4.1-5.3c1.7,0,3.2,1.4,3.8,3.5l0.5-0.1
			c0.7-0.2,1.2-0.8,1.2-1.5V50l-34.1-0.5c-1.3,5.2-3,10.7-5,14.4c-0.3,0.5-0.6,0.9-0.9,1.4C20.5,65.1,23,64.8,25.9,64.4 M12.5,67.8
			H10C10.7,68.5,11.8,68.5,12.5,67.8C12.5,67.9,12.5,67.8,12.5,67.8 M3.5,58.3l2.8,1.2c0.6,0.2,0.9,0.8,0.8,1.4
			c-0.2,0.6-0.8,1-1.4,0.8l-2.4-1c0.1,2.6,2.2,4.7,4.8,4.9c0.1,0,0.3,0,0.4,0h4.1c0.6,0,1.1-0.1,1.6-0.3c1.3-0.4,2.3-1.3,2.9-2.5
			c0.4-0.8,0.8-1.7,1.2-2.7l-3.7,1.5c-1.3,0.5-1.9-1.6-0.6-2.2l5.3-2.2l0,0c0.3-1,0.7-2,1-3.1c-3.7,0.8-7.4,1.3-11.1,1.4
			c-1.8,0.1-3.6-0.2-5.3-0.9C3.8,56,3.6,57.2,3.5,58.3 M4.6,52.5c0.5,0.3,1.1,0.5,1.7,0.6c2.1,0.4,6.4,0.5,14.9-1.4
			c1-3.5,1.8-7.1,2.4-10h-3.8v4.3c0,0.6-0.5,1.1-1.1,1.1c-0.6,0-1.1-0.5-1.1-1.1v-5.4c0-0.6,0.5-1.1,1.1-1.1h5.4
			c0.2-1.2,0.4-2.2,0.6-3c0.1-0.6-0.2-1.1-0.7-1.3c-1.5-0.6-3.8-0.6-6.6-0.2c-3,0.5-5.6,2.2-7.2,4.7C7.6,43.6,5.7,48,4.6,52.5"/>
		<rect x="1.1" y="32.5" class="st5" width="59.4" height="38"/>
		<path class="st7" d="M161.2,23.8l-3.5,11.5h0l-3.5-11.5h-4v14.7h2.3V25.7h0l3.9,12.9h2.3l3.9-12.9l0,0v12.9h2.3V23.8H161.2z
			 M136.1,31.2c-0.1-1.6,0.4-3.1,1.5-4.3c0.8-0.8,2-1.3,3.1-1.2c1.3-0.1,2.5,0.5,3.4,1.5c0.8,1.1,1.3,2.6,1.2,4
			c0,0.7-0.1,1.5-0.2,2.2c-0.1,0.4-0.3,0.8-0.5,1.2c-0.7,1.4-2.2,2.2-3.8,2.1c-1.2,0-2.3-0.4-3.1-1.3
			C136.5,34.3,136,32.8,136.1,31.2 M133.6,31.2c-0.1,2,0.5,4,1.8,5.5c1.3,1.5,3.2,2.2,5.2,2.2c2,0.1,3.9-0.7,5.3-2.2
			c1.3-1.5,1.9-3.5,1.8-5.4c0.1-2-0.6-3.9-1.8-5.4c-1.3-1.5-3.2-2.3-5.2-2.2c-2.1-0.1-4.1,0.7-5.4,2.3
			C134.1,27.4,133.5,29.3,133.6,31.2 M131.7,27.9c-0.1-0.5-0.3-0.9-0.6-1.4c-0.3-0.5-0.6-1-1.1-1.4c-1.2-1.1-2.7-1.6-4.2-1.5
			c-1.9-0.1-3.7,0.6-5,2c-1.3,1.5-2,3.5-1.9,5.6c-0.1,1.9,0.5,3.8,1.6,5.3c1.3,1.5,3.2,2.4,5.2,2.3c0.3,0,0.6,0,0.9-0.1
			c0.4-0.1,0.8-0.1,1.2-0.3c1-0.3,1.9-0.9,2.5-1.7c0.4-0.5,0.7-1,1-1.6c0.1-0.2,0.2-0.5,0.2-0.7c0-0.1,0.1-0.2,0.1-0.3l0.1-0.2
			l-2.4-0.7c-0.2,0.9-0.5,1.7-1.1,2.3c-0.7,0.7-1.7,1.1-2.7,1.1c-1.4,0.1-2.8-0.7-3.5-1.9c-0.3-0.6-0.5-1.3-0.6-2
			c-0.1-0.3-0.1-0.6-0.1-0.9s0-0.5,0-0.8c0-0.6,0-1.1,0.1-1.7c0.1-0.6,0.3-1.2,0.6-1.8c0.7-1.3,2.1-2.1,3.6-2
			c1.7-0.1,3.2,1.1,3.5,2.8L131.7,27.9z M107.1,25.9h2.3c0.7,0,1.3,0,2,0.1c0.6,0.1,1.1,0.3,1.6,0.7c0.6,0.5,1,1.2,1.2,2
			c0.2,0.8,0.3,1.6,0.3,2.3c0,2.3-0.5,3.9-1.6,4.7c-0.4,0.3-0.9,0.5-1.5,0.6c-0.3,0-0.5,0.1-0.8,0.1c-0.2,0-0.4,0-0.8,0h-2.8
			L107.1,25.9z M104.7,38.6h5.4c2.2,0,3.8-0.5,4.8-1.6c1.4-1.6,2.1-3.7,2-5.8c0-1.1-0.1-2.3-0.5-3.4c-0.2-0.7-0.6-1.3-1-1.9
			c-0.7-0.9-1.6-1.5-2.7-1.8c-0.5-0.1-1-0.2-1.4-0.2c-0.3,0-0.8,0-1.4,0h-5.2L104.7,38.6z M95,28.8c0.3-0.8,0.6-1.6,0.8-2.5l0,0
			c0.3,0.9,0.6,1.8,0.9,2.7l1.4,3.6h-4.5L95,28.8z M88.9,38.6h2.6l1.5-3.9h6l1.5,3.9h2.7l-5.9-14.7h-2.6L88.9,38.6z M78,25.9h4h0.6
			c0.4,0,0.7,0.1,1.1,0.3c0.8,0.3,1.3,1,1.3,1.8c0,0.8-0.5,1.6-1.2,1.8c-0.4,0.2-0.8,0.2-1.2,0.3c-0.3,0-0.7,0-1.3,0H78V25.9z
			 M75.6,38.6H78v-6.3h1.5c0.7-0.1,1.5,0.1,2.1,0.5c0.8,0.8,1.5,1.7,2.1,2.7l2.1,3.1h3l-2.2-3.5c-0.5-0.8-1.1-1.6-1.7-2.3
			c-0.2-0.2-0.4-0.4-0.7-0.5c-0.2-0.1-0.4-0.2-0.6-0.3l0,0l0.2-0.1h0.2c0.2,0,0.4-0.1,0.6-0.1c0.5-0.1,0.9-0.3,1.4-0.6
			c1.1-0.7,1.8-1.9,1.7-3.3c0-0.8-0.2-1.5-0.6-2.2c-0.4-0.7-1.1-1.3-1.8-1.5c-1-0.3-2.1-0.4-3.1-0.4h-6.4V38.6z"/>
		<polygon class="st8" points="11.8,103.6 11.8,102.6 6.9,102.6 6.9,99.1 11.7,99.1 11.7,98.1 6.9,98.1 6.9,94.5 11.8,94.5 
			11.8,93.6 5.9,93.6 5.9,103.6 		"/>
		<polygon class="st8" points="17.9,103.6 19.2,103.6 16.9,100.4 19.2,97.1 17.9,97.1 16.2,99.6 14.6,97.1 13.3,97.1 15.6,100.3 
			13.3,103.6 14.6,103.6 16.2,101.1 		"/>
		<polygon class="st8" points="19.8,98.1 21.5,98.1 21.5,103.6 22.5,103.6 22.5,98.1 24.1,98.1 24.1,97.1 22.5,97.1 22.5,94.6 
			21.5,94.6 21.5,97.1 19.8,97.1 		"/>
		<path class="st8" d="M30.7,99.9h-4.6c0.1-0.3,0.2-0.5,0.3-0.7c0.4-0.7,1.2-1.2,2-1.2c0.5,0,1.1,0.2,1.5,0.5
			C30.3,98.9,30.6,99.3,30.7,99.9 M31.8,100.2c0-0.9-0.4-1.7-1-2.3c-1.3-1.3-3.4-1.3-4.8,0c-0.6,0.6-1,1.5-1,2.4
			c0,0.9,0.3,1.8,1,2.4c0.3,0.3,0.7,0.6,1.1,0.7c0.5,0.2,1,0.3,1.5,0.3c0.6,0,1.2-0.2,1.7-0.5c0.6-0.4,1-0.9,1.3-1.5h-1.2
			c-0.2,0.3-0.5,0.5-0.9,0.7c-0.8,0.4-1.8,0.3-2.6-0.3c-0.4-0.3-0.7-0.8-0.8-1.4h5.7L31.8,100.2z"/>
		<path class="st8" d="M38,103.6h1v-4.1c0-0.7-0.2-1.3-0.6-1.8c-0.2-0.2-0.4-0.4-0.7-0.5C37.4,97,37,96.9,36.6,97
			c-0.4,0-0.9,0.1-1.2,0.4c-0.4,0.2-0.6,0.5-0.8,0.9v-1.1h-1v6.4h1v-2.7c0-0.7,0.1-1.4,0.5-2c0.2-0.3,0.4-0.5,0.7-0.7
			c0.3-0.2,0.7-0.3,1.1-0.2c0.4,0,0.7,0.1,0.9,0.5c0.2,0.3,0.3,0.7,0.3,1.1L38,103.6z"/>
		<path class="st8" d="M47.2,103.6V92.5h-1v5.7c-0.1-0.1-0.1-0.2-0.2-0.2c-0.6-0.7-1.4-1-2.2-1c-0.9,0-1.7,0.4-2.3,1
			c-0.6,0.6-0.9,1.5-0.9,2.4c0,0.9,0.3,1.7,0.9,2.4c0.6,0.7,1.4,1.1,2.3,1.1c0.9,0,1.7-0.4,2.2-1c0.1-0.1,0.1-0.1,0.2-0.2v1.1
			L47.2,103.6z M46.2,100.4c0,0.6-0.2,1.2-0.7,1.6c-0.8,0.9-2.2,0.9-3.1,0.1c0,0-0.1-0.1-0.1-0.1c-0.4-0.4-0.7-1-0.7-1.6
			c0-0.6,0.2-1.2,0.7-1.6c0.8-0.9,2.2-0.9,3.1-0.1c0,0,0.1,0.1,0.1,0.1C45.9,99.2,46.2,99.7,46.2,100.4"/>
		<path class="st8" d="M54.7,99.9h-4.6c0.1-0.3,0.2-0.5,0.3-0.7c0.4-0.7,1.2-1.2,2-1.2c0.5,0,1.1,0.2,1.5,0.5
			C54.2,98.9,54.5,99.3,54.7,99.9 M55.7,100.2c0-0.9-0.4-1.7-1-2.3c-1.3-1.3-3.4-1.3-4.8,0c-0.6,0.6-1,1.5-1,2.4
			c0,0.9,0.3,1.8,1,2.4c0.3,0.3,0.7,0.6,1.1,0.7c0.5,0.2,1,0.3,1.5,0.3c0.6,0,1.2-0.2,1.7-0.5c0.6-0.4,1-0.9,1.3-1.5h-1.2
			c-0.2,0.3-0.5,0.5-0.9,0.7c-0.8,0.4-1.8,0.3-2.6-0.3c-0.4-0.3-0.7-0.8-0.8-1.4h5.7L55.7,100.2z"/>
		<path class="st8" d="M63.7,103.6V92.5h-1v5.7c-0.1-0.1-0.1-0.2-0.2-0.2c-1.1-1.2-3-1.4-4.2-0.3c-0.1,0.1-0.2,0.2-0.3,0.3
			c-0.6,0.6-0.9,1.5-0.9,2.4c0,0.9,0.3,1.7,0.9,2.4c1.1,1.2,3,1.4,4.2,0.3c0.1-0.1,0.2-0.2,0.3-0.3c0.1-0.1,0.1-0.1,0.2-0.2v1.1
			L63.7,103.6z M62.6,100.4c0,0.6-0.2,1.2-0.7,1.6c-0.4,0.5-1,0.7-1.6,0.7c-0.6,0-1.2-0.2-1.6-0.7c-0.4-0.4-0.7-1-0.6-1.6
			c0-0.6,0.2-1.2,0.6-1.6c0.4-0.5,1-0.7,1.6-0.7c0.6,0,1.2,0.3,1.6,0.7C62.4,99.2,62.6,99.7,62.6,100.4"/>
		<polygon class="st8" points="75.8,94.5 75.8,93.6 69.8,93.6 69.8,103.6 70.9,103.6 70.9,99.1 75.6,99.1 75.6,98.1 70.9,98.1 
			70.9,94.5 		"/>
		<rect x="77.2" y="92.5" class="st8" width="1" height="11.1"/>
		<path class="st8" d="M85.7,99.9h-4.6c0.1-0.3,0.2-0.5,0.3-0.7c0.4-0.7,1.2-1.2,2-1.2c0.5,0,1.1,0.2,1.5,0.5
			C85.3,98.9,85.6,99.3,85.7,99.9 M86.8,100.2c0-0.9-0.4-1.7-1-2.3c-0.6-0.6-1.5-0.9-2.4-0.9c-0.9,0-1.8,0.4-2.4,1
			c-0.6,0.6-1,1.5-1,2.3c0,0.9,0.3,1.8,1,2.4c0.3,0.3,0.7,0.6,1.1,0.7c0.5,0.2,1,0.3,1.5,0.3c0.6,0,1.2-0.2,1.7-0.5
			c0.6-0.4,1-0.9,1.3-1.5h-1.2c-0.2,0.3-0.5,0.5-0.9,0.7c-0.8,0.4-1.8,0.3-2.6-0.3c-0.4-0.3-0.7-0.8-0.8-1.4h5.7L86.8,100.2z"/>
		<path class="st8" d="M93.7,99.9h-4.6c0.1-0.3,0.2-0.5,0.3-0.7c0.4-0.7,1.2-1.2,2-1.2c0.5,0,1.1,0.2,1.5,0.5
			C93.3,98.9,93.6,99.3,93.7,99.9 M94.8,100.2c0-0.9-0.4-1.7-1-2.3c-0.6-0.6-1.5-0.9-2.4-0.9c-1.9,0-3.4,1.5-3.4,3.4
			c0,0.9,0.3,1.8,1,2.4c0.3,0.3,0.7,0.6,1.1,0.7c0.5,0.2,1,0.3,1.5,0.3c0.6,0,1.2-0.2,1.7-0.5c0.6-0.4,1-0.9,1.3-1.5h-1.2
			c-0.2,0.3-0.5,0.5-0.9,0.7c-0.8,0.4-1.8,0.3-2.6-0.3c-0.4-0.3-0.7-0.8-0.8-1.4h5.7L94.8,100.2z"/>
		<polygon class="st8" points="95.7,98.1 97.3,98.1 97.3,103.6 98.4,103.6 98.4,98.1 100,98.1 100,97.1 98.4,97.1 98.4,94.6 
			97.3,94.6 97.3,97.1 95.7,97.1 		"/>
		<polygon class="st8" points="114.6,103.6 115.6,103.6 113.3,92.9 110,101.5 106.7,92.9 104.4,103.6 105.4,103.6 107,96.5 
			110,104.2 113,96.5 		"/>
		<path class="st8" d="M123.1,103.6v-6.4h-1v1.1c-0.1-0.1-0.1-0.2-0.2-0.2c-1.1-1.2-3-1.4-4.2-0.3c-0.1,0.1-0.2,0.2-0.3,0.3
			c-0.6,0.6-0.9,1.5-0.9,2.4c0,0.9,0.3,1.7,0.9,2.4c1.1,1.2,3,1.4,4.2,0.3c0.1-0.1,0.2-0.2,0.3-0.3c0.1-0.1,0.1-0.1,0.2-0.2v1.1
			L123.1,103.6z M122,100.4c0,0.6-0.2,1.2-0.7,1.6c-0.8,0.9-2.2,0.9-3.1,0.1c0,0-0.1-0.1-0.1-0.1c-0.4-0.4-0.7-1-0.6-1.6
			c0-0.6,0.2-1.2,0.6-1.6c0.8-0.9,2.2-0.9,3.1-0.1c0,0,0.1,0.1,0.1,0.1C121.8,99.2,122,99.7,122,100.4"/>
		<path class="st8" d="M129.7,103.6h1v-4.1c0-0.7-0.2-1.3-0.6-1.8c-0.2-0.2-0.5-0.4-0.7-0.5c-0.4-0.1-0.7-0.2-1.1-0.2
			c-0.4,0-0.9,0.1-1.2,0.4c-0.3,0.2-0.6,0.6-0.8,0.9v-1.1h-1v6.4h1v-2.7c0-0.7,0.1-1.4,0.5-2c0.2-0.3,0.4-0.5,0.7-0.7
			c0.3-0.2,0.7-0.3,1.1-0.2c0.4,0,0.7,0.2,0.9,0.5c0.2,0.3,0.3,0.7,0.3,1.1L129.7,103.6z"/>
		<path class="st8" d="M139,103.6v-6.4h-1v1.1c-0.1-0.1-0.1-0.2-0.2-0.2c-1.1-1.2-3-1.4-4.2-0.3c-0.1,0.1-0.2,0.2-0.3,0.3
			c-0.6,0.6-0.9,1.5-0.9,2.4c0,0.9,0.3,1.7,0.9,2.4c1.1,1.2,3,1.4,4.2,0.3c0.1-0.1,0.2-0.2,0.3-0.3c0.1-0.1,0.1-0.1,0.2-0.2v1.1
			L139,103.6z M137.9,100.4c0,0.6-0.2,1.2-0.7,1.6c-0.8,0.9-2.3,1-3.2,0.1c0,0-0.1-0.1-0.1-0.1c-0.4-0.4-0.7-1-0.6-1.6
			c0-0.6,0.2-1.2,0.6-1.6c0.8-0.9,2.3-1,3.2-0.1c0,0,0.1,0.1,0.1,0.1C137.7,99.2,137.9,99.7,137.9,100.4"/>
		<path class="st8" d="M141.8,104.5h-1c0.3,1.6,1.7,2.8,3.3,2.8c1.9,0,3.4-1.5,3.4-3.4v-6.8h-1v1.1l-0.2-0.2c-0.6-0.6-1.4-1-2.3-1
			c-0.9,0-1.7,0.4-2.3,1c-0.6,0.6-0.9,1.5-0.9,2.4c0,0.9,0.3,1.7,0.9,2.4c1.1,1.3,3,1.4,4.3,0.3c0.1-0.1,0.2-0.2,0.3-0.3l0.2-0.2
			v1.4c0,1.3-1,2.3-2.3,2.4c-0.6,0-1.3-0.2-1.7-0.7C142.1,105.3,141.9,104.9,141.8,104.5 M146.4,100.4c0,0.6-0.2,1.2-0.7,1.6
			c-0.8,0.9-2.2,0.9-3.1,0.1c0,0-0.1-0.1-0.1-0.1c-0.4-0.4-0.7-1-0.7-1.6c0-0.6,0.2-1.2,0.7-1.6c0.8-0.9,2.2-0.9,3.1-0.1
			c0,0,0.1,0.1,0.1,0.1C146.2,99.2,146.4,99.8,146.4,100.4"/>
		<path class="st8" d="M154.9,99.9h-4.6c0.1-0.3,0.2-0.5,0.3-0.7c0.4-0.7,1.2-1.2,2-1.2c0.5,0,1.1,0.2,1.5,0.5
			C154.5,98.9,154.8,99.3,154.9,99.9 M156,100.2c0-0.9-0.4-1.7-1-2.3c-1.3-1.3-3.4-1.3-4.8,0c-0.6,0.6-1,1.5-1,2.4
			c0,0.9,0.3,1.8,1,2.4c0.3,0.3,0.7,0.6,1.1,0.7c0.5,0.2,1,0.3,1.5,0.3c0.6,0,1.2-0.2,1.7-0.5c0.6-0.4,1-0.9,1.3-1.5h-1.2
			c-0.2,0.3-0.5,0.5-0.9,0.7c-0.8,0.4-1.8,0.3-2.6-0.3c-0.4-0.3-0.7-0.8-0.8-1.4h5.7L156,100.2z"/>
		<path class="st8" d="M165.9,103.6h1v-4.1c0-0.7-0.2-1.3-0.6-1.8c-0.2-0.2-0.4-0.4-0.7-0.6c-0.3-0.2-0.7-0.2-1.1-0.2
			c-0.4,0-0.8,0.1-1.2,0.4c-0.3,0.2-0.6,0.5-0.8,0.9c-0.1-0.2-0.2-0.3-0.3-0.5c-0.2-0.2-0.4-0.4-0.7-0.6c-0.3-0.2-0.7-0.2-1.1-0.2
			c-0.4,0-0.8,0.1-1.2,0.4c-0.3,0.2-0.5,0.5-0.7,0.8v-1h-1v6.4h1v-3.3c0-0.5,0.2-0.9,0.4-1.3c0.2-0.3,0.4-0.5,0.6-0.7
			c0.3-0.2,0.6-0.3,0.9-0.3c0.2,0,0.5,0,0.7,0.1c0.4,0.3,0.7,0.9,0.6,1.4v4.1h1v-4.1v-0.2c0-0.1,0.1-0.3,0.2-0.4
			c0.2-0.3,0.4-0.5,0.6-0.7c0.3-0.2,0.6-0.3,0.9-0.3c0.2,0,0.5,0,0.7,0.1c0.4,0.3,0.7,0.9,0.6,1.4L165.9,103.6z"/>
		<path class="st8" d="M174.2,99.9h-4.6c0.1-0.3,0.2-0.5,0.3-0.7c0.4-0.7,1.2-1.2,2-1.2c0.5,0,1.1,0.2,1.5,0.5
			C173.8,98.9,174.1,99.3,174.2,99.9 M175.3,100.2c0-0.9-0.4-1.7-1-2.3c-0.6-0.6-1.5-0.9-2.4-0.9c-1.9,0-3.4,1.5-3.4,3.4
			c0,0.9,0.3,1.8,1,2.4c0.3,0.3,0.7,0.6,1.1,0.7c0.5,0.2,1,0.3,1.5,0.3c0.6,0,1.2-0.2,1.7-0.5c0.6-0.4,1-0.9,1.3-1.5h-1.2
			c-0.2,0.3-0.5,0.5-0.8,0.7c-0.8,0.4-1.8,0.3-2.6-0.3c-0.4-0.3-0.7-0.8-0.8-1.4h5.7L175.3,100.2z"/>
		<path class="st8" d="M181.5,103.6h1v-4.1c0-0.7-0.2-1.3-0.6-1.8c-0.2-0.2-0.5-0.4-0.7-0.5c-0.4-0.1-0.7-0.2-1.1-0.2
			c-0.4,0-0.9,0.1-1.2,0.4c-0.3,0.2-0.6,0.6-0.8,0.9v-1.1h-1v6.4h1v-2.7c0-0.7,0.1-1.4,0.5-2c0.2-0.3,0.4-0.5,0.7-0.7
			c0.3-0.2,0.7-0.3,1.1-0.2c0.4,0,0.7,0.2,0.9,0.5c0.2,0.3,0.3,0.7,0.3,1.1L181.5,103.6z"/>
		<polygon class="st8" points="183.7,98.1 185.3,98.1 185.3,103.6 186.3,103.6 186.3,98.1 187.9,98.1 187.9,97.1 186.3,97.1 
			186.3,94.6 185.3,94.6 185.3,97.1 183.7,97.1 		"/>
		<path class="st9" d="M178,63.5V74c0,1.1,0.1,2.2,0.3,3.3c0.2,1,0.6,1.9,1.2,2.6c0.6,0.8,1.4,1.4,2.3,1.7c1.2,0.4,2.5,0.7,3.8,0.6
			c0.8,0,1.7-0.1,2.8-0.2c1.1-0.1,2.1-0.4,3.1-0.7l-1.1-5.1c-0.6,0.2-1.3,0.3-1.9,0.4c-0.5,0.1-1,0.1-1.5,0.1
			c-1.3,0-2.2-0.3-2.5-0.9c-0.4-0.8-0.6-1.7-0.5-2.6v-9.7h5.7v-4.9H184v-5.9h-4.9l-1,5.9h-3v4.9L178,63.5z M166,68.1h-8v-0.3
			c-0.1-1.1,0.4-2.2,1.2-2.9c0.8-0.7,1.8-1,2.8-1c1,0,2,0.3,2.8,0.9c0.8,0.7,1.3,1.8,1.2,2.9L166,68.1z M172,72v-4.6
			c0-1.3-0.2-2.6-0.8-3.9c-0.5-1.1-1.2-2.1-2.1-2.9c-0.9-0.8-2-1.4-3.2-1.8c-1.3-0.4-2.6-0.6-4-0.6c-1.3,0-2.6,0.2-3.9,0.6
			c-1.2,0.4-2.2,1-3.2,1.8c-0.9,0.8-1.7,1.8-2.1,2.9c-0.5,1.2-0.8,2.6-0.8,3.9v6c0,1.3,0.3,2.6,0.8,3.8c0.5,1,1.3,2,2.3,2.7
			c1,0.7,2.1,1.3,3.3,1.6c1.3,0.4,2.6,0.5,3.9,0.5c0.8,0,1.5,0,2.2-0.1c1.5-0.2,3-0.7,4.4-1.5c0.8-0.5,1.6-1,2.2-1.7l-3.3-4.1
			c-0.9,0.8-2,1.3-3.1,1.6c-0.8,0.2-1.6,0.3-2.5,0.3c-0.5,0-1.1-0.1-1.6-0.2c-0.5-0.1-0.9-0.4-1.3-0.7c-0.4-0.3-0.7-0.8-0.9-1.2
			c-0.2-0.6-0.4-1.2-0.4-1.8v-0.8L172,72z M142,68.1h-7.9v-0.3c-0.1-1.1,0.4-2.2,1.2-2.9c0.8-0.7,1.8-1,2.8-1c1,0,2,0.3,2.8,0.9
			c0.8,0.7,1.3,1.8,1.2,2.9L142,68.1z M148,72v-4.6c0-1.3-0.2-2.6-0.8-3.9c-0.5-1.1-1.2-2.1-2.1-2.9c-0.9-0.8-2-1.4-3.2-1.8
			c-1.3-0.4-2.6-0.6-4-0.6c-1.3,0-2.6,0.2-3.9,0.6c-1.2,0.4-2.2,1-3.2,1.8c-0.9,0.8-1.7,1.8-2.1,2.9c-0.5,1.2-0.8,2.6-0.8,3.9v6
			c0,1.3,0.3,2.6,0.8,3.8c0.5,1,1.3,2,2.3,2.7c1,0.7,2.1,1.3,3.3,1.6c1.3,0.4,2.6,0.5,3.9,0.5c0.8,0,1.5,0,2.2-0.1
			c1.5-0.2,3-0.7,4.4-1.5c0.8-0.5,1.5-1,2.2-1.7l-3.3-4.1c-0.9,0.8-1.9,1.3-3,1.6c-0.8,0.2-1.6,0.3-2.5,0.3c-0.5,0-1.1-0.1-1.6-0.2
			c-0.5-0.2-0.9-0.4-1.3-0.7c-0.4-0.3-0.7-0.8-0.9-1.2c-0.2-0.6-0.4-1.2-0.4-1.8v-0.8L148,72z M121.7,48.2h-6v27.4
			c0,0.9,0.1,1.8,0.2,2.8c0.1,0.8,0.4,1.5,0.9,2.1c0.5,0.6,1.2,1,1.9,1.3c1.1,0.4,2.2,0.5,3.4,0.5c0.4,0,0.9,0,1.4,0
			c0.5,0,1-0.1,1.5-0.2l-0.1-5.1c-0.5,0-1.1,0-1.6-0.1c-0.3,0-0.6-0.2-0.9-0.4c-0.2-0.2-0.4-0.4-0.5-0.7c-0.1-0.4-0.1-0.8-0.1-1.3
			L121.7,48.2z M96,55.3H112v-5.8H89.6V82H96V68.7h13.6v-5.8H96L96,55.3z M78,54.7c1.3,1.3,3.4,1.3,4.7,0c0.6-0.6,1-1.5,1-2.4
			c0-0.9-0.3-1.8-0.9-2.4c-1.3-1.3-3.3-1.3-4.7-0.1c0,0,0,0-0.1,0.1c-0.7,0.6-1,1.5-1,2.4C77,53.2,77.4,54.1,78,54.7 M83.4,58.7h-6
			V82h6V58.7z"/>
		<path class="st0" d="M39.4,46.9L39.4,46.9c0-0.3,0-0.7,0-1l30.7,7.5c0.7,0.2,1.3,0.8,1.2,1.6v2.8l-34.2-0.5
			C38.2,53.1,39,49.3,39.4,46.9"/>
		<path class="st1" d="M65.8,67.4c0.9,0,1.7,1.2,1.8,2.8l0,0c0,0.2,0,0.4,0,0.6c0,1.9-1,3.4-1.9,3.4s-1.7-1.3-1.8-2.9
			c0-0.2,0-0.3,0-0.5C63.9,68.8,64.9,67.4,65.8,67.4"/>
		<path class="st1" d="M43.4,69.4c1.5,0,2.8,2.2,2.8,4.7c0,0.1,0,0.2,0,0.3v0.1c-0.1,2.4-1.3,4.3-2.8,4.3c-1.2,0-2.2-1.4-2.6-3.2
			c-0.1-0.5-0.1-0.9-0.1-1.4C40.7,71.5,41.9,69.4,43.4,69.4"/>
		<path class="st1" d="M22.2,78.1h2.6C24.1,78.8,23,78.9,22.2,78.1C22.3,78.2,22.2,78.2,22.2,78.1"/>
		<path class="st2" d="M36.7,59.5l34.8,0.5v6.8c0,0.8-0.5,1.4-1.2,1.6l-0.5,0.1c-0.6-2.1-2.1-3.5-3.9-3.5c-2.3,0-4,2.3-4.2,5.3
			c-4.7,1-9.2,1.9-13.3,2.7c-0.3-3.4-2.4-6-5-6c-2.8,0-5,3-5,6.9c0,0.2,0,0.4,0,0.6c-2.9,0.4-5.5,0.7-7.8,0.8
			c0.4-0.4,0.7-0.9,0.9-1.4C33.6,70.3,35.3,64.8,36.7,59.5"/>
		<path class="st3" d="M29.6,45c2.9-0.4,5.3-0.4,6.8,0.2c0.5,0.2,0.8,0.8,0.7,1.3c-0.1,0.7-0.3,1.8-0.6,3h-5.5
			c-0.6,0-1.1,0.5-1.1,1.1v5.5c0.1,0.6,0.6,1.1,1.2,1c0.6,0,1-0.5,1-1v-4.3h3.9c-0.6,2.9-1.5,6.5-2.5,10.1
			c-8.7,1.9-13.1,1.8-15.2,1.4c-0.6-0.1-1.2-0.3-1.8-0.6c1.1-4.6,3-8.9,5.6-12.9C24,47.2,26.6,45.5,29.6,45"/>
		<path class="st4" d="M32.9,64.4c-0.3,1.1-0.7,2.1-1,3.1l0,0l-5.4,2.2c-1.3,0.5-0.7,2.8,0.6,2.2l3.7-1.5c-0.4,1-0.8,1.9-1.3,2.8
			c-0.6,1.2-1.7,2.1-3,2.5c-0.5,0.2-1.1,0.3-1.7,0.3h-4.2h-0.4c-2.6-0.2-4.7-2.3-4.9-5l2.4,1c0.6,0.2,1.3-0.2,1.4-0.8
			c0.2-0.6-0.2-1.3-0.8-1.4l-2.8-1.2c0.1-1.1,0.3-2.3,0.6-3.6c1.7,0.7,3.6,1,5.4,0.9C25.4,65.7,29.2,65.2,32.9,64.4"/>
		<rect x="12.8" y="42.4" class="st5" width="61" height="38.5"/>
		<path class="st6" d="M14.2,49.5h5.5c0.2-0.4,0.4-0.7,0.7-1.1c2-3.1,5.3-5.1,8.9-5.7c3.3-0.5,5.9-0.4,7.8,0.3l33.6,8.2
			c1.8,0.4,3,2,3,3.8v11.9c0,1.8-1.2,3.4-3,3.8L70,70.9c0,3.1-1.8,5.5-4.2,5.5c-1.8,0-3.4-1.5-3.9-3.7c-4.8,1.1-9.4,2-13.6,2.7
			c-0.4,3.2-2.5,5.5-4.9,5.5c-2,0-3.8-1.6-4.6-4c-3.7,0.5-7.4,0.8-11.1,0.9c-0.7,1.8-2.3,3-4.2,3.1c-1.8-0.1-3.4-1.3-4.1-3
			c-3.9-0.7-6.6-4.2-6.2-8.1c0-0.2,0-0.5,0.1-0.7v-0.1c0.6-6,2.4-11.9,5.2-17.3h-3v4.3c0,0.6-0.5,1.1-1.1,1.1s-1.1-0.5-1.1-1.1v-5.4
			C13.1,50,13.6,49.5,14.2,49.5 M71.4,55c0-0.8-0.5-1.4-1.2-1.6l-30.7-7.5c0,0.3,0,0.7,0,1l0,0c-0.4,2.4-1.2,6.2-2.2,10.3l34.2,0.5
			L71.4,55z M63.9,71.3c0.1,1.6,0.9,2.9,1.8,2.9s1.9-1.4,1.9-3.4c0-0.2,0-0.4,0-0.6l0,0c-0.2-1.5-1-2.8-1.8-2.8
			c-0.8,0-1.9,1.4-1.9,3.4C63.9,70.9,63.9,71.1,63.9,71.3 M40.8,75.5c0.4,1.8,1.5,3.2,2.6,3.2c1.4,0,2.6-1.9,2.8-4.3v-0.1
			c0-0.1,0-0.2,0-0.3c0-2.5-1.3-4.7-2.8-4.7c-1.5,0-2.8,2.1-2.8,4.7C40.6,74.5,40.7,75,40.8,75.5 M38.4,74.7c0-0.2,0-0.4,0-0.6
			c0-3.9,2.2-6.9,5-6.9c2.6,0,4.7,2.6,5,6c4.1-0.7,8.5-1.6,13.3-2.7c0.1-3,1.9-5.3,4.2-5.3c1.8,0,3.3,1.4,3.9,3.5l0.5-0.1
			c0.7-0.2,1.2-0.8,1.2-1.6v-6.8l-34.8-0.5c-1.4,5.2-3.1,10.8-5.1,14.6c-0.3,0.5-0.6,1-0.9,1.4C32.9,75.4,35.5,75.1,38.4,74.7
			 M24.8,78.1h-2.6C22.9,78.9,24,78.9,24.8,78.1C24.7,78.2,24.8,78.2,24.8,78.1 M15.6,68.5l2.8,1.2c0.6,0.1,1,0.7,0.9,1.4
			c-0.1,0.6-0.7,1-1.4,0.9c0,0-0.1,0-0.1,0l-2.4-1c0.1,2.6,2.2,4.8,4.9,5h0.4h4.2c0.6,0,1.1-0.1,1.7-0.3c1.3-0.4,2.3-1.3,3-2.5
			c0.4-0.8,0.8-1.7,1.3-2.8l-3.7,1.5c-1.4,0.5-1.9-1.7-0.6-2.2l5.4-2.2l0,0c0.4-1,0.7-2,1-3.1c-3.7,0.9-7.5,1.3-11.4,1.4
			c-1.8,0.1-3.7-0.2-5.4-0.9C15.9,66.1,15.7,67.3,15.6,68.5 M16.7,62.6c0.6,0.3,1.2,0.5,1.8,0.6c2.1,0.4,6.5,0.5,15.2-1.4
			c1-3.5,1.8-7.1,2.5-10.1h-3.9v4.3c0,0.6-0.5,1.1-1.1,1.1c-0.6,0-1.1-0.5-1.1-1.1v-5.5c0-0.6,0.5-1.1,1.1-1.1h5.5
			c0.2-1.2,0.4-2.3,0.6-3c0.1-0.6-0.2-1.1-0.7-1.3c-1.5-0.6-3.9-0.6-6.8-0.2c-3,0.5-5.7,2.2-7.4,4.7C19.7,53.7,17.8,58,16.7,62.6"/>
		<rect x="13.1" y="42.4" class="st5" width="60.6" height="38.5"/>
	</g>
</g>
</svg>
