<svg xmlns="http://www.w3.org/2000/svg" viewBox="0 0 192.07 131.46"><defs><style>.cls-1{fill:#3fc1c9;}.cls-1,.cls-2,.cls-3,.cls-5{fill-rule:evenodd;}.cls-2{fill:#41ead4;}.cls-3{fill:#342f90;}.cls-4{fill:none;}.cls-5{fill:#fac446;}.cls-6{fill:#1c3f95;}.cls-7{fill:#1c3f95;}.cls-8{fill:#2b61d0;}</style></defs><title>OptiFare</title><g id="Layer_2" data-name="Layer 2"><g id="Layer_1-2" data-name="Layer 1"><path class="cls-1" d="M73.7,18.33a2.12,2.12,0,0,0-3,.55,2.15,2.15,0,0,1-3,.55,2.12,2.12,0,0,1-.55-3,2.15,2.15,0,0,0-.56-3L61.39,9.89a6.39,6.39,0,0,0-8.88,1.65L29.6,44.94a6.39,6.39,0,0,0,1.66,8.88l5.27,3.62a2.13,2.13,0,0,0,3-.55A2.13,2.13,0,1,1,43,59.3a2.13,2.13,0,0,0,.55,3l5.28,3.62a6.39,6.39,0,0,0,8.88-1.66l22.9-33.39A6.39,6.39,0,0,0,79,21.94L73.7,18.33"/><path class="cls-2" d="M55.27,26.36l10.54,7.23a2.13,2.13,0,1,0,2.41-3.51L57.68,22.85a2.13,2.13,0,1,0-2.41,3.51"/><path class="cls-3" d="M46.83,38.66l-3.61,5.27a2.13,2.13,0,0,0,3.51,2.41l3.61-5.27a2.13,2.13,0,1,0-3.51-2.41"/><path class="cls-3" d="M58.68,36.45l-8.44,12.3a2.13,2.13,0,1,0,3.52,2.41l8.43-12.3a2.13,2.13,0,1,0-3.51-2.41"/><rect class="cls-4" x="26.24" y="9.01" width="57.75" height="57.75" transform="translate(-6.01 10.74) rotate(-10.55)"/><path class="cls-1" d="M32.08,11.62a2.14,2.14,0,0,0-1.19,2.77,2.13,2.13,0,0,1-4,1.57,2.13,2.13,0,0,0-2.76-1.19l-5.94,2.36a6.4,6.4,0,0,0-3.59,8.3L29.58,63.06a6.39,6.39,0,0,0,8.3,3.58l5.94-2.36A2.11,2.11,0,0,0,45,61.52a2.14,2.14,0,1,1,4-1.58,2.12,2.12,0,0,0,2.77,1.19l5.94-2.35a6.4,6.4,0,0,0,3.58-8.3L46.33,12.84A6.42,6.42,0,0,0,38,9.26l-5.94,2.36"/><path class="cls-5" d="M28.47,31.4l11.88-4.72a2.13,2.13,0,1,0-1.57-4L26.9,27.44a2.13,2.13,0,0,0,1.57,4"/><path class="cls-3" d="M34,45.26l2.36,5.94a2.13,2.13,0,1,0,4-1.57l-2.36-5.94a2.13,2.13,0,0,0-4,1.57"/><path class="cls-3" d="M38.75,34.2l5.51,13.86a2.13,2.13,0,1,0,4-1.58L42.71,32.62a2.13,2.13,0,0,0-4,1.58"/><rect class="cls-4" x="9.08" y="9.08" width="57.75" height="57.75" transform="translate(-11.93 57.76) rotate(-66.66)"/><path class="cls-6" d="M184.46,89H175.8v-.3a4,4,0,0,1,1.28-3.19,4.49,4.49,0,0,1,3.07-1.12,4.83,4.83,0,0,1,3,1,3.7,3.7,0,0,1,1.28,3.11Zm6.5,4.25v-5a10.19,10.19,0,0,0-.82-4.2,8.82,8.82,0,0,0-2.25-3.1A10.14,10.14,0,0,0,184.46,79a13.88,13.88,0,0,0-4.36-.66,13,13,0,0,0-4.2.66,10.45,10.45,0,0,0-3.43,2,8.88,8.88,0,0,0-2.33,3.15,10.24,10.24,0,0,0-.85,4.23v6.55a8.45,8.45,0,0,0,3.38,7,10.79,10.79,0,0,0,3.56,1.71,15.74,15.74,0,0,0,4.28.57c.82,0,1.63,0,2.44-.13a12.49,12.49,0,0,0,2.38-.51,12.3,12.3,0,0,0,2.35-1.08A12.91,12.91,0,0,0,190,100.7l-3.59-4.46A8.2,8.2,0,0,1,183.07,98a13.46,13.46,0,0,1-2.66.33,5.76,5.76,0,0,1-1.74-.25,4.34,4.34,0,0,1-1.46-.77,3.63,3.63,0,0,1-1-1.33A4.68,4.68,0,0,1,175.8,94v-.82Zm-24.43-15a10,10,0,0,0-2.72.38,18.31,18.31,0,0,0-2.66,1,19.25,19.25,0,0,0-2.38,1.31A10.93,10.93,0,0,0,157,82.31H157l-.46-3.74h-6V104H157V87.84A20.65,20.65,0,0,1,161,86a23.83,23.83,0,0,1,5.56-1Zm-28,18.23a24,24,0,0,1-2.61,1.2,8.53,8.53,0,0,1-3.23.64,3.33,3.33,0,0,1-2.23-.64A2.09,2.09,0,0,1,129.7,96a2.31,2.31,0,0,1,.31-1.26,2.13,2.13,0,0,1,.79-.76,2.77,2.77,0,0,1,1.07-.36,9.71,9.71,0,0,1,1.21-.08h5.43Zm.05,5.43.46,2H145V88.15q0-5-2.54-7.43c-1.69-1.64-4.35-2.45-8-2.45a22.25,22.25,0,0,0-4.94.61,14,14,0,0,0-5.35,2.66l2.92,4.77a8.52,8.52,0,0,1,3.66-1.85,16.19,16.19,0,0,1,3.05-.36,5.56,5.56,0,0,1,3.63.9,3.38,3.38,0,0,1,1,2.69v1.08H131.9a12.51,12.51,0,0,0-3.12.41,9,9,0,0,0-3,1.33,7.37,7.37,0,0,0-2.23,2.38,6.83,6.83,0,0,0-.87,3.56,7.53,7.53,0,0,0,2.13,5.66,8.25,8.25,0,0,0,6,2.07,13.73,13.73,0,0,0,3.44-.48,17.57,17.57,0,0,0,4.15-1.82ZM102.75,75h17.32v-6.3H95.74V104h7V89.59h14.81v-6.3H102.75ZM83.19,74.4a3.65,3.65,0,0,0,5.12,0,3.46,3.46,0,0,0,1.07-2.59,3.55,3.55,0,0,0-1.07-2.61,3.57,3.57,0,0,0-5.12,0,3.56,3.56,0,0,0-1.08,2.61,3.46,3.46,0,0,0,1.08,2.59M89,78.67H82.52V104H89ZM64,84V95.27a17.06,17.06,0,0,0,.36,3.61,7,7,0,0,0,1.29,2.87,6,6,0,0,0,2.55,1.87,11,11,0,0,0,4.1.67c.82,0,1.81-.06,3-.18a13.56,13.56,0,0,0,3.41-.8L77.5,97.73a16.24,16.24,0,0,1-2,.44,12.79,12.79,0,0,1-1.64.12c-1.43,0-2.35-.34-2.74-1a5.63,5.63,0,0,1-.59-2.8V84h6.15V78.67H70.48V72.32H65.22l-1.14,6.35H60.8V84ZM50.86,94.28a3.32,3.32,0,0,1-3.63,3.86,11.25,11.25,0,0,1-2.46-.28,14.63,14.63,0,0,1-3-1.11V86.62a10.53,10.53,0,0,1,1.43-.84,16.27,16.27,0,0,1,1.59-.7,14.53,14.53,0,0,1,1.56-.49,5.86,5.86,0,0,1,1.36-.18,3.31,3.31,0,0,1,2.25.8,3.85,3.85,0,0,1,.92,3Zm6.61-6.59c0-3.18-.72-5.51-2.17-7A8.36,8.36,0,0,0,49,78.42a10.79,10.79,0,0,0-3.23.61,19,19,0,0,0-4,1.93l-.52-2.29h-6v35.45h6.51V102.85a11.15,11.15,0,0,0,3.66,1.23,23.15,23.15,0,0,0,3.15.26q4.41,0,6.66-2.54a9.7,9.7,0,0,0,2.25-6.68ZM22.84,91.48a7,7,0,0,1-.56,3,5.53,5.53,0,0,1-1.48,2,5.71,5.71,0,0,1-2.08,1.1,8.6,8.6,0,0,1-2.38.33,8.92,8.92,0,0,1-2.41-.33,5.72,5.72,0,0,1-2.1-1.1,5.53,5.53,0,0,1-1.48-2,7,7,0,0,1-.57-3V81.18a6.82,6.82,0,0,1,.57-2.94,5.59,5.59,0,0,1,1.48-2,6.1,6.1,0,0,1,2.1-1.13,8.23,8.23,0,0,1,2.41-.36,7.94,7.94,0,0,1,2.38.36,6.11,6.11,0,0,1,2.08,1.13,5.59,5.59,0,0,1,1.48,2,6.83,6.83,0,0,1,.56,2.94Zm7-11.52a10.74,10.74,0,0,0-1.12-5,10.9,10.9,0,0,0-3-3.64,13.81,13.81,0,0,0-4.34-2.22,16.67,16.67,0,0,0-5.07-.77,18.3,18.3,0,0,0-5.06.71A13.28,13.28,0,0,0,6.91,71.2a10.48,10.48,0,0,0-3,3.58,10.58,10.58,0,0,0-1.12,5v13a11,11,0,0,0,1.07,5,10.88,10.88,0,0,0,2.91,3.64,12.66,12.66,0,0,0,4.32,2.23,18.92,18.92,0,0,0,10.48,0,12.47,12.47,0,0,0,4.32-2.23,10.91,10.91,0,0,0,2.92-3.64,11.18,11.18,0,0,0,1.07-5Z"/><path class="cls-7" d="M187.31,42.82l-3.85,12.51h-.05l-3.79-12.51h-4.3v16h2.54v-14h0l4.23,14h2.45l4.24-14h0v14h2.54v-16Zm-27.23,8a6.28,6.28,0,0,1,1.58-4.68,4.55,4.55,0,0,1,3.39-1.31,4.44,4.44,0,0,1,3.65,1.62A6.67,6.67,0,0,1,170,50.76a10,10,0,0,1-.26,2.36,6.49,6.49,0,0,1-.56,1.36,4.42,4.42,0,0,1-4.12,2.32,4.59,4.59,0,0,1-3.41-1.36,6.4,6.4,0,0,1-1.56-4.64m-2.72,0a8.62,8.62,0,0,0,2,6A7.15,7.15,0,0,0,165,59.05a7.31,7.31,0,0,0,5.73-2.34,8.62,8.62,0,0,0,2-5.91,8.57,8.57,0,0,0-2-5.88,8,8,0,0,0-11.55.18,8.66,8.66,0,0,0-1.82,5.66m-2.12-3.55a8.85,8.85,0,0,0-.6-1.47,5.91,5.91,0,0,0-5.75-3.19,7.06,7.06,0,0,0-5.4,2.17,8.57,8.57,0,0,0-2.09,6.06,9,9,0,0,0,1.76,5.79,6.76,6.76,0,0,0,5.62,2.48,8.28,8.28,0,0,0,2.38-.36,5.75,5.75,0,0,0,2.76-1.83A7,7,0,0,0,155,55.13c.09-.24.18-.5.27-.76l.09-.29.06-.27-2.58-.76a5.36,5.36,0,0,1-1.23,2.54,3.68,3.68,0,0,1-2.89,1.21,4.09,4.09,0,0,1-3.75-2,6.5,6.5,0,0,1-.67-2.14c-.06-.33-.1-.67-.13-1s0-.58,0-.85a10.39,10.39,0,0,1,.15-1.82,6.51,6.51,0,0,1,.65-1.94,4.06,4.06,0,0,1,3.86-2.16,3.73,3.73,0,0,1,3.85,3ZM128.6,45.07h2.46a15.31,15.31,0,0,1,2.18.11A3.49,3.49,0,0,1,135,46a4.36,4.36,0,0,1,1.27,2.19,9.92,9.92,0,0,1,.29,2.54c0,2.54-.57,4.23-1.69,5.08a3.65,3.65,0,0,1-1.61.65q-.37.06-.87.09l-.82,0h-3ZM126,58.78h5.91q3.54,0,5.22-1.69a8.62,8.62,0,0,0,2.16-6.29,10.93,10.93,0,0,0-.54-3.63,7.18,7.18,0,0,0-1.11-2.05,5.39,5.39,0,0,0-2.88-2,7.69,7.69,0,0,0-1.56-.26c-.37,0-.87,0-1.51,0H126ZM115.45,48.15a20,20,0,0,0,.83-2.7h0c.3.94.64,1.92,1,2.94l1.47,4h-4.9Zm-6.66,10.63h2.79l1.56-4.26h6.53l1.62,4.26h2.92l-6.44-16h-2.83ZM97,45.07h4.37l.6,0a4.26,4.26,0,0,1,1.21.24,2,2,0,0,1,1.38,2,2,2,0,0,1-1.34,2,4.25,4.25,0,0,1-1.29.29c-.34,0-.8,0-1.38,0H97ZM94.39,58.78H97V51.89h1.61a3.65,3.65,0,0,1,2.25.58,14.88,14.88,0,0,1,2.27,2.92l2.23,3.39h3.21L106.21,55a12.72,12.72,0,0,0-1.92-2.45,4.24,4.24,0,0,0-.74-.56,5.07,5.07,0,0,0-.62-.35v0l.18,0,.24,0a3.75,3.75,0,0,0,.6-.14,5.63,5.63,0,0,0,1.48-.62,3.89,3.89,0,0,0,1.87-3.54,4.59,4.59,0,0,0-.63-2.37,3.68,3.68,0,0,0-1.94-1.62,10.07,10.07,0,0,0-3.41-.43H94.39Z"/><polygon class="cls-8" points="71.58 127.46 71.58 126.42 66.23 126.42 66.23 122.55 71.42 122.55 71.42 121.49 66.23 121.49 66.23 117.62 71.58 117.62 71.58 116.58 65.11 116.58 65.11 127.46 71.58 127.46"/><rect class="cls-8" x="73.38" y="123.44" width="5.36" height="0.91"/><polygon class="cls-8" points="79.66 117.59 82.3 117.59 82.3 127.43 83.41 127.43 83.41 117.59 86.05 117.59 86.05 116.55 83.41 116.55 82.3 116.55 79.66 116.55 79.66 117.59"/><path class="cls-8" d="M88.77,120.42H87.65v7h1.12ZM88.71,118a.75.75,0,0,0-.51-.21.72.72,0,0,0-.71.72.72.72,0,0,0,.71.71.72.72,0,0,0,.72-.71.75.75,0,0,0-.21-.51"/><path class="cls-8" d="M97.81,123A3.67,3.67,0,0,0,96.53,121a3.47,3.47,0,0,0-2.17-.75,3.42,3.42,0,0,0-2.56,1.09,3.72,3.72,0,0,0,0,5.16,3.37,3.37,0,0,0,1.13.8,3.32,3.32,0,0,0,1.33.29,3.44,3.44,0,0,0,1.2-.18,3.59,3.59,0,0,0,2.29-2.28H96.48a2.37,2.37,0,0,1-.89.94,2.28,2.28,0,0,1-1.23.35,2.35,2.35,0,0,1-1.75-.73,2.46,2.46,0,0,1-.7-1.78,2.42,2.42,0,0,1,.7-1.74,2.44,2.44,0,0,1,.79-.55,2.8,2.8,0,0,1,1.07-.2,2.26,2.26,0,0,1,1.23.41,2.65,2.65,0,0,1,.9,1.09Z"/><polygon class="cls-8" points="100.69 127.46 100.69 124.09 103.46 127.46 104.95 127.46 101.86 123.83 104.75 120.41 103.27 120.41 100.69 123.59 100.69 115.46 99.57 115.46 99.57 127.46 100.69 127.46"/><path class="cls-8" d="M112,123.41h-5a2.5,2.5,0,0,1,.34-.81,2.41,2.41,0,0,1,2.16-1.25,2.37,2.37,0,0,1,1.58.58,2.66,2.66,0,0,1,.91,1.48m1.19.37a3.44,3.44,0,0,0-1.12-2.51,3.61,3.61,0,0,0-2.56-1,3.69,3.69,0,0,0-3.68,3.68,3.63,3.63,0,0,0,2.24,3.37,3.85,3.85,0,0,0,1.6.29,3.44,3.44,0,0,0,1.84-.57,3.73,3.73,0,0,0,1.36-1.6h-1.28a2.79,2.79,0,0,1-.93.78,2.46,2.46,0,0,1-1.15.27,2.49,2.49,0,0,1-1.64-.59,2.33,2.33,0,0,1-.88-1.49h6.2Z"/><polygon class="cls-8" points="114.15 121.46 115.91 121.46 115.91 127.46 117.03 127.46 117.03 121.46 118.77 121.46 118.77 120.42 117.03 120.42 117.03 117.69 115.91 117.69 115.91 120.42 114.15 120.42 114.15 121.46"/><path class="cls-8" d="M121.49,120.42h-1.12v7h1.12Zm-.07-2.43a.75.75,0,0,0-.51-.21.72.72,0,0,0-.7.72.72.72,0,0,0,.7.71.72.72,0,0,0,.72-.71.75.75,0,0,0-.21-.51"/><path class="cls-8" d="M128.82,127.46h1.12v-4.4a3,3,0,0,0-.64-2,2.56,2.56,0,0,0-.79-.59,3,3,0,0,0-1.21-.22,2.27,2.27,0,0,0-1.33.4,2.77,2.77,0,0,0-.9,1v-1.22H124v7h1.12v-2.94a3.88,3.88,0,0,1,.5-2.13,2.39,2.39,0,0,1,.73-.72,2.23,2.23,0,0,1,1.17-.27,1.14,1.14,0,0,1,1,.49,2.2,2.2,0,0,1,.32,1.17Z"/><path class="cls-8" d="M132.8,128.42h-1.15a3.7,3.7,0,0,0,3.61,3,3.65,3.65,0,0,0,3.65-3.65v-7.39h-1.12v1.19l-.19-.23a3.34,3.34,0,0,0-2.45-1.12,3.25,3.25,0,0,0-2.48,1.12,3.79,3.79,0,0,0-1,2.56,3.72,3.72,0,0,0,1,2.56,3.27,3.27,0,0,0,4.93,0l.19-.21v1.52a2.53,2.53,0,0,1-4.32,1.79,2.28,2.28,0,0,1-.67-1.18m5-4.48a2.48,2.48,0,0,1-.72,1.79,2.4,2.4,0,0,1-3.52,0,2.45,2.45,0,0,1-.72-1.79,2.52,2.52,0,0,1,.72-1.79,2.4,2.4,0,0,1,3.52,0,2.55,2.55,0,0,1,.72,1.79"/><path class="cls-8" d="M148.64,122.34a8.05,8.05,0,0,1,2.88,1.12,1.37,1.37,0,0,1,.52,1.11,1.81,1.81,0,0,1-.28,1.07,3,3,0,0,1-2.56,1c-1.7,0-2.66-.57-2.87-1.72H145c.39,1.84,1.78,2.75,4.18,2.75a4.72,4.72,0,0,0,2.68-.71,2.77,2.77,0,0,0,1.32-2.47,2.37,2.37,0,0,0-1.06-2.07,7.86,7.86,0,0,0-2.4-1,13.18,13.18,0,0,1-2.18-.7,1.65,1.65,0,0,1-1.08-1.55,1.48,1.48,0,0,1,.22-.88,2.45,2.45,0,0,1,2.21-1c1.49,0,2.33.48,2.56,1.41h1.21c-.4-1.57-1.66-2.37-3.77-2.37a4.18,4.18,0,0,0-2.51.77,2.61,2.61,0,0,0-1.09,2.29c0,1.39,1.12,2.35,3.33,2.86"/><polygon class="cls-8" points="155.71 131.46 160.57 120.42 159.32 120.42 157.31 125.14 155.05 120.42 153.77 120.42 156.72 126.31 154.35 131.46 155.71 131.46"/><path class="cls-8" d="M162.62,126.47a1.59,1.59,0,0,1-.59-1h-1.19a2.47,2.47,0,0,0,2.8,2.18,3.65,3.65,0,0,0,1.07-.13,3.2,3.2,0,0,0,.9-.4,1.91,1.91,0,0,0,.82-1.68,1.72,1.72,0,0,0-1.09-1.66,4.44,4.44,0,0,0-1-.34c-.35-.08-.69-.18-1-.27a2.76,2.76,0,0,1-.79-.37.79.79,0,0,1-.32-.69.74.74,0,0,1,.39-.7,1.65,1.65,0,0,1,.89-.24,1.87,1.87,0,0,1,.9.21,1.19,1.19,0,0,1,.54.77h1.2a2.12,2.12,0,0,0-.89-1.48,3.26,3.26,0,0,0-1.71-.43,2.9,2.9,0,0,0-1.76.55,1.88,1.88,0,0,0-.74,1.6,1.59,1.59,0,0,0,.27.89,2,2,0,0,0,.82.64,6.32,6.32,0,0,0,1,.35c.35.08.68.18,1,.27.72.24,1.09.6,1.09,1,0,.77-.51,1.14-1.53,1.14a1.94,1.94,0,0,1-1.09-.27"/><polygon class="cls-8" points="167.16 121.46 168.92 121.46 168.92 127.46 170.04 127.46 170.04 121.46 171.78 121.46 171.78 120.42 170.04 120.42 170.04 117.69 168.92 117.69 168.92 120.42 167.16 120.42 167.16 121.46"/><path class="cls-8" d="M179,123.41h-5a2.47,2.47,0,0,1,.33-.81,2.43,2.43,0,0,1,2.16-1.25,2.4,2.4,0,0,1,1.59.58,2.66,2.66,0,0,1,.91,1.48m1.18.37a3.4,3.4,0,0,0-1.12-2.51,3.59,3.59,0,0,0-2.56-1,3.7,3.7,0,0,0-3.68,3.68,3.48,3.48,0,0,0,1.08,2.59,3.54,3.54,0,0,0,1.16.78,3.91,3.91,0,0,0,1.6.29,3.39,3.39,0,0,0,1.84-.57,3.6,3.6,0,0,0,1.36-1.6h-1.28a2.76,2.76,0,0,1-.92.78,2.58,2.58,0,0,1-2.79-.32,2.33,2.33,0,0,1-.88-1.49h6.19Z"/><path class="cls-8" d="M191,127.43h1.12V123a3.2,3.2,0,0,0-.59-2,2.2,2.2,0,0,0-.74-.61,2.53,2.53,0,0,0-1.18-.24,2.2,2.2,0,0,0-1.3.4,3.27,3.27,0,0,0-.83.94,3.5,3.5,0,0,0-.29-.49,2.27,2.27,0,0,0-.73-.61,2.6,2.6,0,0,0-1.19-.24,2.17,2.17,0,0,0-1.29.4,2.87,2.87,0,0,0-.79.9v-1.14H182v7h1.12v-3.6a3.43,3.43,0,0,1,.43-1.46,2.18,2.18,0,0,1,.69-.73,1.65,1.65,0,0,1,.93-.29,1.45,1.45,0,0,1,.74.16,1.7,1.7,0,0,1,.68,1.52v4.4h1.12v-4.66a2.09,2.09,0,0,1,.19-.4,2.18,2.18,0,0,1,.69-.73,1.65,1.65,0,0,1,.93-.29,1.41,1.41,0,0,1,.73.16A1.68,1.68,0,0,1,191,123Z"/></g></g></svg>