<?xml version="1.0" encoding="utf-8"?>
<!-- Generator: Adobe Illustrator 14.0.0, SVG Export Plug-In . SVG Version: 6.00 Build 43363)  -->
<!DOCTYPE svg PUBLIC "-//W3C//DTD SVG 1.1//EN" "http://www.w3.org/Graphics/SVG/1.1/DTD/svg11.dtd">
<svg version="1.1" id="Layer_1" xmlns="http://www.w3.org/2000/svg" xmlns:xlink="http://www.w3.org/1999/xlink" x="0px" y="0px"
	 width="496px" height="76.54px" viewBox="0 0 496 76.54" enable-background="new 0 0 496 76.54" xml:space="preserve">
<g>
	<path fill="#FFFFFF" d="M13.773,38.066c0-5.536-3.663-10.27-8.668-11.836c-1.48,3.748-2.281,7.817-2.281,12.073
		c0,4.154,0.715,8.072,2.096,11.685C10.062,48.486,13.773,43.691,13.773,38.066z M19.135,38.066c0-4.908-2.013-9.333-5.226-12.601
		c-1.839-1.785-4.024-3.215-6.437-4.105c-0.408,0.665-0.802,1.38-1.16,2.096c2.232,0.765,4.242,2.06,5.895,3.711
		c2.81,2.811,4.559,6.659,4.559,10.899c0,4.291-1.749,8.139-4.559,10.949c-1.703,1.688-3.751,2.986-6.08,3.762
		c0.316,0.715,0.715,1.428,1.123,2.145c2.504-0.908,4.776-2.381,6.659-4.254C17.123,47.457,19.135,42.979,19.135,38.066z
		 M23.685,38.066c0-6.165-2.503-11.75-6.563-15.815c-2.012-2.011-4.381-3.615-7.012-4.738c-0.407,0.543-0.85,1.073-1.258,1.654
		c2.59,1.034,4.921,2.596,6.842,4.513c3.664,3.708,5.98,8.8,5.98,14.386c0,5.625-2.317,10.729-5.98,14.438
		c-2.013,1.965-4.382,3.578-7.063,4.602c0.408,0.578,0.801,1.121,1.208,1.701c2.772-1.16,5.228-2.826,7.283-4.873
		C21.182,49.859,23.685,44.275,23.685,38.066z M58.355,38.066c0,5.625,3.711,10.42,8.853,11.922
		c1.332-3.613,2.096-7.531,2.096-11.685c0-4.256-0.801-8.325-2.281-12.073C62.018,27.797,58.355,32.531,58.355,38.066z
		 M55.362,38.066c0-4.241,1.749-8.088,4.56-10.899c1.651-1.651,3.662-2.946,5.893-3.711c-0.356-0.715-0.751-1.431-1.158-2.096
		c-2.413,0.891-4.599,2.32-6.437,4.105c-3.214,3.268-5.227,7.693-5.227,12.601c0,4.912,2.012,9.391,5.227,12.602
		c1.881,1.873,4.155,3.346,6.658,4.254c0.407-0.717,0.765-1.43,1.123-2.145c-2.329-0.775-4.377-2.074-6.079-3.762
		C57.111,46.205,55.362,42.357,55.362,38.066z M50.453,38.066c0-5.585,2.28-10.677,5.98-14.386c1.922-1.917,4.252-3.479,6.842-4.513
		c-0.407-0.582-0.851-1.111-1.294-1.654c-2.594,1.123-4.963,2.727-6.976,4.738c-4.059,4.066-6.562,9.651-6.562,15.815
		c0,6.209,2.503,11.793,6.562,15.867c2.056,2.047,4.511,3.713,7.238,4.873c0.453-0.58,0.846-1.123,1.253-1.701
		c-2.682-1.023-5.051-2.637-7.063-4.602C52.733,48.795,50.453,43.691,50.453,38.066z M45.361,38.066c0-7.016,2.859-13.353,7.459-18
		c2.056-2.01,4.424-3.712,7.055-4.957c-0.447-0.453-0.844-0.851-1.298-1.258c-2.589,1.295-4.906,2.997-6.917,5.056
		c-3.836,3.791-6.514,8.711-7.536,14.193c-0.242-2.071-0.628-4.101-1.157-6.075c1.522-3.815,3.805-7.254,6.682-10.13
		c1.962-1.97,4.155-3.668,6.611-5.003c-0.407-0.32-0.802-0.581-1.208-0.901c-2.318,1.393-4.463,3.047-6.387,4.963
		c-2.603,2.605-4.738,5.665-6.295,9.042c-0.354-1.099-0.752-2.178-1.19-3.237c1.552-2.795,3.486-5.352,5.742-7.59
		c1.743-1.748,3.667-3.312,5.763-4.645c-0.31-0.185-0.666-0.407-0.987-0.582c-2.01,1.333-3.835,2.814-5.49,4.512
		c-2.14,2.124-3.998,4.528-5.531,7.143c-0.533-1.189-1.116-2.351-1.75-3.48c1.435-2.174,3.078-4.199,4.913-6.033
		c1.336-1.338,2.767-2.596,4.333-3.755c-0.272-0.085-0.493-0.172-0.763-0.269c-1.428,1.07-2.813,2.278-4.059,3.537
		c-1.788,1.784-3.401,3.741-4.817,5.841c-0.702-1.198-1.46-2.358-2.271-3.478c1.322-1.808,2.776-3.514,4.362-5.09
		c0.714-0.714,1.469-1.428,2.233-2.108L42.45,5.677c-0.715,0.629-1.43,1.294-2.095,1.966c-1.558,1.557-2.993,3.241-4.302,5.025
		c-1.314-1.784-2.756-3.468-4.323-5.025c-0.672-0.672-1.337-1.337-2.052-1.966l-0.447,0.085c0.804,0.68,1.558,1.394,2.272,2.108
		c1.582,1.571,3.032,3.272,4.352,5.075c-0.811,1.124-1.568,2.287-2.271,3.489c-1.411-2.099-3.021-4.055-4.807-5.838
		c-1.295-1.258-2.63-2.467-4.059-3.537c-0.269,0.096-0.49,0.183-0.762,0.269c1.516,1.16,2.996,2.417,4.333,3.755
		c1.833,1.832,3.474,3.854,4.907,6.024c-0.636,1.134-1.22,2.3-1.753,3.495c-1.526-2.617-3.38-5.023-5.522-7.149
		c-1.657-1.698-3.48-3.179-5.49-4.512c-0.321,0.175-0.678,0.397-0.987,0.582c2.096,1.333,4.02,2.897,5.763,4.645
		c2.244,2.242,4.177,4.804,5.731,7.605c-0.436,1.057-0.832,2.132-1.184,3.228c-1.563-3.379-3.71-6.441-6.334-9.048
		c-1.88-1.917-4.024-3.571-6.343-4.963c-0.408,0.321-0.801,0.581-1.208,0.901c2.456,1.335,4.648,3.033,6.611,5.003
		c2.876,2.875,5.158,6.313,6.681,10.128c-0.53,1.98-0.917,4.016-1.158,6.093c-1.031-5.488-3.729-10.414-7.534-14.209
		c-2.011-2.06-4.328-3.761-6.917-5.056c-0.454,0.408-0.901,0.806-1.298,1.258c2.631,1.245,4.999,2.947,7.055,4.957
		c4.6,4.648,7.459,10.985,7.459,18s-2.859,13.416-7.502,18.016c-2.103,2.145-4.556,3.883-7.33,5.139
		c0.448,0.445,0.851,0.842,1.294,1.232c2.688-1.295,5.142-3.068,7.238-5.178c3.806-3.795,6.505-8.725,7.535-14.236
		c0.241,2.08,0.628,4.117,1.158,6.098c-1.522,3.826-3.805,7.273-6.681,10.148c-2.049,2.066-4.38,3.811-6.919,5.182
		c0.358,0.322,0.752,0.582,1.159,0.908c2.453-1.393,4.734-3.129,6.7-5.139c2.626-2.613,4.775-5.68,6.338-9.066
		c0.352,1.096,0.749,2.17,1.184,3.227c-1.555,2.807-3.49,5.371-5.735,7.613c-1.829,1.838-3.889,3.496-6.12,4.869
		c0.309,0.236,0.629,0.408,0.987,0.58c2.095-1.371,4.061-2.932,5.847-4.734c2.143-2.127,3.997-4.541,5.523-7.166
		c0.535,1.197,1.121,2.367,1.759,3.506c-1.435,2.176-3.079,4.203-4.914,6.043c-1.472,1.465-3.038,2.799-4.74,4.018
		c0.271,0.137,0.493,0.209,0.765,0.309c1.566-1.16,3.083-2.453,4.463-3.848c1.79-1.787,3.401-3.746,4.814-5.85
		c0.7,1.199,1.456,2.361,2.264,3.482c-1.319,1.807-2.77,3.512-4.351,5.092c-0.844,0.852-1.74,1.703-2.677,2.451l0.444,0.102
		c0.851-0.717,1.701-1.529,2.459-2.318c1.567-1.568,3.009-3.258,4.323-5.047c1.309,1.789,2.744,3.479,4.302,5.047
		c0.801,0.789,1.652,1.602,2.502,2.318l0.444-0.102c-0.937-0.748-1.833-1.6-2.677-2.451c-1.586-1.584-3.04-3.295-4.362-5.105
		c0.808-1.119,1.563-2.277,2.264-3.473c1.418,2.105,3.033,4.066,4.824,5.854c1.382,1.395,2.898,2.688,4.464,3.848
		c0.271-0.1,0.494-0.172,0.764-0.309c-1.701-1.219-3.311-2.553-4.739-4.018c-1.838-1.842-3.483-3.873-4.92-6.053
		c0.637-1.133,1.222-2.297,1.756-3.49c1.533,2.623,3.392,5.035,5.533,7.16c1.742,1.803,3.701,3.363,5.847,4.734
		c0.358-0.172,0.679-0.344,0.987-0.58c-2.231-1.373-4.291-3.031-6.12-4.869c-2.258-2.236-4.194-4.797-5.746-7.598
		c0.438-1.059,0.836-2.139,1.189-3.236c1.558,3.385,3.695,6.449,6.3,9.061c2.009,2.01,4.291,3.746,6.744,5.139
		c0.407-0.268,0.801-0.586,1.159-0.908c-2.539-1.371-4.871-3.115-6.919-5.182c-2.877-2.875-5.16-6.324-6.682-10.15
		c0.528-1.975,0.915-4.006,1.157-6.08c1.021,5.506,3.699,10.43,7.537,14.221c2.097,2.109,4.55,3.883,7.238,5.178
		c0.444-0.391,0.847-0.787,1.245-1.232c-2.725-1.256-5.178-2.994-7.323-5.139C48.221,51.482,45.361,45.082,45.361,38.066z
		 M40.97,22.14c0.438,1.086,0.842,2.189,1.191,3.316c-1.088,2.465-1.874,5.092-2.295,7.839c-0.246-2-0.643-3.953-1.182-5.85
		C39.298,25.604,40.062,23.829,40.97,22.14z M32.601,37.165c0.083-2.938,0.487-5.802,1.199-8.548
		c0.885,3.006,1.371,6.176,1.371,9.45c0,3.289-0.486,6.471-1.372,9.484c-0.711-2.752-1.115-5.623-1.198-8.578
		c0.009-0.302,0.023-0.603,0.023-0.907C32.624,37.764,32.61,37.465,32.601,37.165z M34.299,26.868
		c0.489-1.574,1.084-3.102,1.763-4.584c0.673,1.473,1.263,2.99,1.747,4.554c-0.938,2.726-1.542,5.601-1.769,8.582
		C35.817,32.45,35.223,29.584,34.299,26.868z M36.04,40.715c0.227,2.986,0.833,5.871,1.772,8.607
		c-0.485,1.57-1.076,3.096-1.751,4.572c-0.681-1.486-1.277-3.021-1.767-4.602C35.221,46.564,35.816,43.689,36.04,40.715z
		 M36.957,38.066c0-3.27,0.479-6.437,1.358-9.439c0.775,3.023,1.189,6.187,1.189,9.439c0,3.271-0.414,6.445-1.189,9.475
		C37.437,44.529,36.957,41.352,36.957,38.066z M38.727,17.427c0.635,1.144,1.215,2.32,1.745,3.524
		c-0.883,1.548-1.653,3.168-2.293,4.852c-0.495-1.487-1.072-2.938-1.737-4.342C37.121,20.066,37.889,18.723,38.727,17.427z
		 M36.064,13.238c0.813,1.13,1.57,2.301,2.271,3.51c-0.834,1.263-1.595,2.576-2.28,3.935c-0.68-1.356-1.436-2.667-2.265-3.927
		C34.491,15.543,35.25,14.37,36.064,13.238z M33.401,17.428c0.833,1.29,1.597,2.627,2.273,4.016
		c-0.672,1.407-1.254,2.862-1.755,4.354c-0.633-1.677-1.394-3.291-2.269-4.833C32.182,19.756,32.764,18.576,33.401,17.428z
		 M31.149,22.162c0.899,1.671,1.657,3.426,2.269,5.247c-0.535,1.861-0.933,3.777-1.184,5.737c-0.426-2.689-1.2-5.263-2.271-7.681
		C30.312,24.342,30.713,23.244,31.149,22.162z M29.375,48.592c-0.57-2.248-0.953-4.568-1.151-6.939
		c0.157-1.174,0.246-2.369,0.246-3.586c0-1.209-0.089-2.399-0.246-3.568c0.197-2.368,0.58-4.686,1.151-6.933
		c1.23,3.269,1.905,6.803,1.905,10.501C31.279,41.77,30.604,45.314,29.375,48.592z M31.154,54.008
		c-0.436-1.082-0.838-2.18-1.186-3.303c1.069-2.418,1.841-4.996,2.267-7.693c0.251,1.965,0.648,3.885,1.183,5.748
		C32.808,50.582,32.051,52.338,31.154,54.008z M33.409,58.744c-0.639-1.152-1.224-2.336-1.756-3.549
		c0.872-1.541,1.631-3.156,2.263-4.832c0.501,1.498,1.085,2.961,1.759,4.373C35.001,56.121,34.239,57.457,33.409,58.744z
		 M36.064,62.926c-0.811-1.131-1.568-2.301-2.268-3.51c0.827-1.258,1.58-2.564,2.258-3.918c0.683,1.355,1.441,2.666,2.273,3.926
		C37.629,60.629,36.874,61.797,36.064,62.926z M38.719,58.744c-0.834-1.293-1.601-2.633-2.279-4.025
		c0.667-1.408,1.246-2.865,1.742-4.361c0.638,1.684,1.406,3.305,2.287,4.852C39.938,56.418,39.356,57.598,38.719,58.744z
		 M40.966,54.027c-0.907-1.688-1.669-3.461-2.281-5.305c0.539-1.898,0.936-3.857,1.182-5.861c0.42,2.756,1.205,5.387,2.291,7.854
		C41.808,51.842,41.404,52.943,40.966,54.027z M43.903,41.664c-0.198,2.369-0.581,4.684-1.15,6.928
		c-1.23-3.277-1.905-6.822-1.905-10.525c0-3.698,0.675-7.233,1.905-10.501c0.569,2.243,0.952,4.557,1.15,6.92
		c-0.156,1.174-0.245,2.368-0.245,3.582C43.659,39.287,43.748,40.486,43.903,41.664z M126.448,43.141
		c-1.577-1.262-3.577-2.42-5.999-3.475c4.869-0.525,8.528-1.802,10.976-3.827c2.446-2.024,3.671-4.589,3.671-7.696
		c0-2.447-0.808-4.622-2.422-6.523s-3.766-3.225-6.453-3.969c-2.687-0.743-6.995-1.115-12.924-1.115H89.719v41.404h11.202V40.654
		h2.271c2.573,0,4.453,0.156,5.639,0.467c1.186,0.311,2.309,0.885,3.368,1.723s3.028,2.865,5.904,6.086l8.099,9.01h13.397
		l-6.774-8.078C130.15,46.643,128.024,44.402,126.448,43.141z M109.209,34.046h-8.288V23.54h8.742c4.542,0,7.266,0.047,8.174,0.141
		c1.817,0.226,3.223,0.768,4.22,1.624c0.997,0.857,1.495,1.981,1.495,3.375c0,1.242-0.378,2.278-1.135,3.106
		c-0.757,0.829-1.804,1.412-3.141,1.751C117.938,33.876,114.583,34.046,109.209,34.046z M174.801,16.536l-21.609,41.404h11.883
		l4.58-9.404h22.177l4.844,9.404h12.186l-22.215-41.404H174.801z M173.098,41.559l7.493-15.364l7.645,15.364H173.098z
		 M267.338,21.139c-2.321-1.826-5.11-3.097-8.364-3.813c-2.421-0.527-5.941-0.791-10.559-0.791H227.94v41.404h21.081
		c4.137,0,7.441-0.293,9.914-0.875c3.305-0.791,5.93-1.893,7.872-3.305c2.573-1.865,4.555-4.303,5.942-7.314
		c1.136-2.467,1.702-5.404,1.702-8.813c0-3.878-0.604-7.14-1.816-9.786C271.425,25.202,269.658,22.965,267.338,21.139z
		 M261.736,44.85c-0.757,1.854-1.733,3.186-2.934,3.996c-1.197,0.809-2.706,1.383-4.522,1.723c-1.388,0.264-3.646,0.396-6.772,0.396
		h-8.365V23.54h5.033c4.567,0,7.632,0.132,9.197,0.395c2.095,0.339,3.821,0.989,5.185,1.949c1.362,0.96,2.422,2.298,3.179,4.011
		c0.757,1.713,1.136,4.17,1.136,7.371C262.872,40.467,262.493,42.996,261.736,44.85z M328.009,49.383
		c-2.145,1.41-4.706,2.117-7.683,2.117c-4.038,0-7.317-1.111-9.841-3.332c-2.522-2.221-3.783-5.949-3.783-11.185
		c0-4.933,1.28-8.501,3.841-10.704c2.561-2.203,5.897-3.304,10.01-3.304c2.977,0,5.507,0.621,7.589,1.864
		c2.081,1.243,3.449,2.938,4.105,5.083l11.09-1.977c-1.263-3.314-3.154-5.855-5.678-7.625c-4.239-2.994-9.751-4.491-16.538-4.491
		c-7.771,0-14.041,1.907-18.809,5.719c-4.769,3.813-7.153,9.165-7.153,16.057c0,6.514,2.371,11.651,7.115,15.407
		c4.743,3.756,10.799,5.635,18.165,5.635c5.953,0,10.868-1.098,14.74-3.291c3.873-2.193,6.642-5.551,8.308-10.068l-10.861-2.57
		C331.691,45.748,330.153,47.969,328.009,49.383z M410.46,21.506c-4.907-3.784-11.447-5.677-19.622-5.677
		c-4.518,0-8.503,0.546-11.959,1.638c-2.599,0.81-4.99,2.052-7.173,3.728c-2.182,1.676-3.903,3.568-5.164,5.677
		c-1.691,2.862-2.535,6.401-2.535,10.619c0,6.59,2.433,11.764,7.303,15.52c4.869,3.756,11.43,5.635,19.679,5.635
		c8.149,0,14.659-1.889,19.529-5.664c4.868-3.773,7.304-9.004,7.304-15.688C417.821,30.554,415.366,25.291,410.46,21.506z
		 M401.944,47.9c-2.863,2.398-6.527,3.6-10.994,3.6c-4.465,0-8.147-1.209-11.049-3.629s-4.353-5.973-4.353-10.662
		c0-4.763,1.411-8.327,4.237-10.69c2.826-2.362,6.549-3.544,11.164-3.544c4.618,0,8.32,1.168,11.109,3.502
		c2.786,2.335,4.182,5.875,4.182,10.619C406.241,41.898,404.809,45.498,401.944,47.9z M476.374,16.536l-9.954,28.244l-10.067-28.244
		h-16.766v41.404h10.407V25.347l10.977,32.592h10.785l11.013-32.592v32.592h10.407V16.536H476.374z"/>
</g>
</svg>
