<?xml version="1.0" encoding="utf-8"?>
<!-- Generator: Adobe Illustrator 22.1.0, SVG Export Plug-In . SVG Version: 6.00 Build 0)  -->
<svg version="1.1" id="Layer_1" xmlns="http://www.w3.org/2000/svg" xmlns:xlink="http://www.w3.org/1999/xlink" x="0px" y="0px"
	 viewBox="0 0 192.1 131.5" style="enable-background:new 0 0 192.1 131.5;" xml:space="preserve">
<style type="text/css">
	.st0{fill:#FAC446;}
	.st1{fill:#79D3EC;}
	.st2{clip-path:url(#SVGID_2_);}
	.st3{fill:#58C592;}
	.st4{fill:#CCD9E8;}
	.st5{clip-path:url(#SVGID_4_);}
	.st6{fill:#342F90;}
	.st7{clip-path:url(#SVGID_6_);}
	.st8{fill:#434850;}
	.st9{fill:#737373;}
	.st10{fill:#1C3F95;}
</style>
<title>OptiFare</title>
<g id="Layer_2_1_">
	<g id="Layer_1-2">
		<rect x="3.3" y="48.1" class="st0" width="2.7" height="11.3"/>
		<rect x="20.5" y="75.7" class="st1" width="6.5" height="1.8"/>
		<g>
			<defs>
				<rect id="SVGID_1_" x="0.5" y="15.9" width="69.1" height="78.5"/>
			</defs>
			<clipPath id="SVGID_2_">
				<use xlink:href="#SVGID_1_"  style="overflow:visible;"/>
			</clipPath>
			<g class="st2">
				<path class="st1" d="M61.7,29.5c0-5.7-4.6-10.2-10.3-10.2c-5.7,0-10.2,4.6-10.2,10.3c0,5.7,4.6,10.2,10.3,10.2
					C57.1,39.8,61.7,35.2,61.7,29.5 M50.1,26.9v-4.3c0.2-0.8,0.9-1.2,1.7-1c0.5,0.1,0.9,0.5,1,1v6.1l5.5,3.5c1.5,1,0.1,3.4-1.4,2.5
					l-3.5-2.2c-0.9-0.6-2.3-1.1-3-1.9C49.7,29.7,50,28,50.1,26.9"/>
				<path class="st3" d="M17.8,81.8h34.5c1.7,0,3.1-1.4,3.1-3.1v-7H14.7v7C14.7,80.4,16.1,81.8,17.8,81.8 M40.3,75.2
					c0-1.3,1-2.3,2.3-2.4c0,0,0,0,0,0h7.5c1.3,0,2.3,1.1,2.3,2.4V78c0,1.3-1.1,2.3-2.3,2.3h-7.5c-1.3,0-2.3-1-2.3-2.3c0,0,0,0,0,0
					V75.2z M17.7,75.2c0-1.3,1-2.3,2.3-2.4c0,0,0,0,0,0h7.5c1.3,0,2.4,1.1,2.4,2.4l0,0V78c0,1.3-1.1,2.3-2.3,2.3c0,0,0,0,0,0H20
					c-1.3,0-2.3-1.1-2.3-2.3L17.7,75.2z"/>
				<rect x="64.2" y="48.1" class="st0" width="2.7" height="11.3"/>
				<rect x="43.2" y="75.7" class="st1" width="6.5" height="1.8"/>
				<rect x="47.2" y="84.6" class="st4" width="3.4" height="6.7"/>
				<rect x="19.6" y="84.6" class="st4" width="3.4" height="6.7"/>
				<rect x="14.7" y="48.1" class="st1" width="40.7" height="20.8"/>
			</g>
		</g>
		<g>
			<defs>
				<rect id="SVGID_3_" x="0.5" y="31.6" width="69.1" height="62.6"/>
			</defs>
			<clipPath id="SVGID_4_">
				<use xlink:href="#SVGID_3_"  style="overflow:visible;"/>
			</clipPath>
			<g class="st5">
				<path class="st6" d="M3,62.2h3.3c1.4,0,2.5-1.2,2.5-2.5V48.1h3.1v30.6c0,2.8,2,5.3,4.8,5.8v7c0,1.4,1.2,2.6,2.6,2.6c0,0,0,0,0,0
					h3.9c1.4,0,2.6-1.2,2.6-2.6v-6.8h18.5v6.9c0,1.4,1.2,2.6,2.6,2.6c0,0,0,0,0,0h3.9c1.4,0,2.6-1.2,2.6-2.6v-7
					c2.8-0.5,4.8-3,4.8-5.8V48.1h3.1v11.6c0,1.4,1.1,2.5,2.5,2.5c0,0,0,0,0,0h3.3c1.4,0,2.5-1.1,2.5-2.5c0,0,0,0,0,0V47.8
					c0-1.4-1.1-2.5-2.5-2.5h-8.9v-1.6c0-0.8-0.6-1.4-1.3-1.5c-0.8,0-1.4,0.6-1.5,1.3c0,0.1,0,0.1,0,0.2v1.5H14.7v-1.4
					c0-4.7,3.8-8.5,8.5-8.5h12.1c0.8-0.1,1.4-0.8,1.3-1.5c-0.1-0.7-0.6-1.2-1.3-1.3H23.2c-6.3,0-11.3,5.1-11.3,11.4c0,0,0,0,0,0v1.4
					H3c-1.4,0-2.6,1.2-2.5,2.6c0,0,0,0,0,0v11.8C0.5,61.1,1.6,62.2,3,62.2 M64.2,48.1h2.7v11.3h-2.7V48.1z M23,91.3h-3.4v-6.6H23
					L23,91.3z M50.6,91.3h-3.4v-6.6h3.4L50.6,91.3z M14.7,48.1h40.7v20.8H14.7V48.1z M14.7,71.7h40.7v7c0,1.7-1.4,3.1-3.1,3.1H17.8
					c-1.7,0-3.1-1.4-3.1-3.1L14.7,71.7z M3.3,48.1H6v11.3H3.3V48.1z"/>
			</g>
		</g>
		<g>
			<defs>
				<rect id="SVGID_5_" x="0.5" y="15.9" width="69.1" height="78.5"/>
			</defs>
			<clipPath id="SVGID_6_">
				<use xlink:href="#SVGID_5_"  style="overflow:visible;"/>
			</clipPath>
			<g class="st7">
				<path class="st6" d="M42.7,80.3h7.5c1.3,0,2.3-1.1,2.3-2.3v-2.8c0-1.3-1-2.3-2.3-2.4h-7.5c-1.3,0-2.3,1.1-2.3,2.4V78
					C40.3,79.3,41.4,80.3,42.7,80.3 M43.1,75.7h6.5v1.8h-6.5V75.7z"/>
				<path class="st6" d="M56.9,34.7c1.5,1,3-1.5,1.4-2.5l-5.5-3.5v-6.1c0-0.8-0.6-1.4-1.4-1.4c-0.8,0-1.4,0.6-1.4,1.4V27
					c0,1-0.3,2.7,0.4,3.6c0.7,0.9,2.1,1.4,3,1.9L56.9,34.7"/>
				<path class="st6" d="M64.6,29.5c0-7.2-5.9-13.1-13.1-13c-7.2,0-13.1,5.9-13,13.1c0,7.2,5.9,13,13.1,13
					C58.7,42.6,64.6,36.8,64.6,29.5 M41.2,29.5c0-5.7,4.6-10.2,10.3-10.2s10.2,4.6,10.2,10.3c0,5.7-4.6,10.2-10.3,10.2
					C45.8,39.8,41.2,35.2,41.2,29.5"/>
				<path class="st6" d="M20,80.3h7.5c1.3,0,2.3-1,2.4-2.3c0,0,0,0,0,0v-2.8c0-1.3-1.1-2.4-2.4-2.4l0,0H20c-1.3,0-2.3,1.1-2.3,2.4
					V78C17.7,79.3,18.7,80.3,20,80.3 M20.5,75.7H27v1.8h-6.5V75.7z"/>
			</g>
		</g>
		<path class="st8" d="M185.9,31.7l-3.7,12.1h0l-3.7-12.1h-4.2v15.5h2.5V33.6l0,0l4.1,13.6h2.4l4.1-13.6l0,0v13.6h2.5V31.7H185.9z
			 M159.5,39.4c-0.1-1.7,0.4-3.3,1.5-4.5c0.9-0.9,2-1.3,3.3-1.3c1.4-0.1,2.7,0.5,3.5,1.6c0.9,1.2,1.4,2.7,1.3,4.2
			c0,0.8-0.1,1.5-0.3,2.3c-0.1,0.5-0.3,0.9-0.5,1.3c-0.8,1.5-2.4,2.4-4.1,2.2c-1.2,0-2.4-0.4-3.3-1.3
			C159.9,42.7,159.4,41,159.5,39.4 M156.9,39.4c-0.1,2.1,0.6,4.2,1.9,5.8c1.4,1.5,3.4,2.4,5.5,2.2c2.1,0.1,4.1-0.7,5.6-2.3
			c1.3-1.6,2-3.6,1.9-5.7c0.1-2.1-0.6-4.1-1.9-5.7c-3-3-7.9-3.1-11-0.1c-0.1,0.1-0.2,0.2-0.2,0.2C157.4,35.4,156.8,37.4,156.9,39.4
			 M154.8,35.9c-0.2-0.5-0.3-1-0.6-1.4c-1.1-2.1-3.3-3.3-5.6-3.1c-2-0.1-3.9,0.7-5.2,2.1c-1.4,1.6-2.1,3.7-2,5.9
			c-0.1,2,0.5,4,1.7,5.6c1.3,1.6,3.4,2.5,5.4,2.4c0.8,0,1.6-0.1,2.3-0.3c1-0.3,2-0.9,2.7-1.8c0.4-0.5,0.7-1.1,1-1.7
			c0.1-0.2,0.2-0.5,0.3-0.7l0.1-0.3l0.1-0.3l-2.5-0.7c-0.2,0.9-0.6,1.8-1.2,2.5c-0.7,0.8-1.7,1.2-2.8,1.2c-1.5,0.1-2.9-0.7-3.6-2
			c-0.3-0.6-0.6-1.4-0.6-2.1c-0.1-0.3-0.1-0.6-0.1-1c0-0.3,0-0.6,0-0.8c0-0.6,0-1.2,0.1-1.8c0.1-0.7,0.3-1.3,0.6-1.9
			c0.7-1.4,2.2-2.2,3.7-2.1c1.8-0.1,3.4,1.1,3.7,2.9L154.8,35.9z M129,33.8h2.3c0.7,0,1.4,0,2.1,0.1c0.6,0.1,1.2,0.4,1.7,0.8
			c0.6,0.6,1,1.3,1.2,2.1c0.2,0.8,0.3,1.6,0.3,2.5c0,2.5-0.6,4.1-1.6,4.9c-0.5,0.3-1,0.5-1.6,0.6c-0.2,0-0.5,0.1-0.8,0.1h-0.8H129
			L129,33.8z M126.5,47.1h5.7c2.3,0,4-0.5,5.1-1.6c1.5-1.7,2.2-3.9,2.1-6.1c0-1.2-0.2-2.4-0.5-3.5c-0.2-0.7-0.6-1.4-1.1-2
			c-0.7-0.9-1.7-1.6-2.8-1.9c-0.5-0.1-1-0.2-1.5-0.3c-0.4,0-0.8,0-1.5,0h-5.5V47.1z M116.3,36.8c0.3-0.9,0.6-1.7,0.8-2.6l0,0
			c0.3,0.9,0.6,1.9,1,2.8l1.4,3.8h-4.7L116.3,36.8z M109.8,47.1h2.7L114,43h6.3l1.6,4.1h2.8l-6.2-15.5h-2.7L109.8,47.1z M98.4,33.8
			h4.2l0.6,0c0.4,0,0.8,0.1,1.2,0.2c0.8,0.3,1.4,1.1,1.3,1.9c0,0.9-0.5,1.7-1.3,1.9c-0.4,0.2-0.8,0.3-1.3,0.3c-0.3,0-0.8,0-1.3,0
			h-3.4V33.8z M95.8,47.1h2.5v-6.7h1.6c0.8-0.1,1.5,0.1,2.2,0.6c0.8,0.8,1.6,1.8,2.2,2.8l2.2,3.3h3.1l-2.3-3.7
			c-0.5-0.9-1.1-1.7-1.9-2.4c-0.2-0.2-0.5-0.4-0.7-0.5c-0.2-0.1-0.4-0.2-0.6-0.3l0,0h0.2h0.2c0.2,0,0.4-0.1,0.6-0.1
			c0.5-0.1,1-0.3,1.4-0.6c1.2-0.7,1.9-2,1.8-3.4c0-0.8-0.2-1.6-0.6-2.3c-0.4-0.7-1.1-1.3-1.9-1.6c-1.1-0.3-2.2-0.5-3.3-0.4h-6.7
			V47.1z"/>
		<path class="st9" d="M9.1,105.3c0-0.8-0.3-1.5-0.9-2c-0.6-0.5-1.3-0.8-2.1-0.8h-3v9.2h1v-3.7h2c0.8,0,1.5-0.3,2.1-0.8
			C8.8,106.8,9.1,106.1,9.1,105.3 M4.1,107.2v-3.7h2.2c0.5,0,1,0.2,1.3,0.5c0.3,0.4,0.5,0.8,0.5,1.3c0,0.5-0.2,1-0.5,1.4
			c-0.3,0.3-0.8,0.5-1.3,0.5H4.1z"/>
		<path class="st9" d="M16.1,111.8v-6h-1v1l-0.2-0.2c-1-1.2-2.7-1.3-3.9-0.3c-0.1,0.1-0.2,0.2-0.3,0.3c-0.5,0.6-0.8,1.4-0.8,2.2
			c0,0.8,0.3,1.6,0.8,2.2c1,1.2,2.7,1.3,3.9,0.3c0.1-0.1,0.2-0.2,0.3-0.3l0.2-0.2v1L16.1,111.8z M15.1,108.8c0,0.6-0.2,1.1-0.6,1.5
			c-0.8,0.8-2.1,0.9-2.9,0.1c0,0-0.1-0.1-0.1-0.1c-0.4-0.4-0.6-1-0.6-1.5c0-0.6,0.2-1.1,0.6-1.5c0.8-0.8,2.1-0.9,2.9-0.1
			c0,0,0.1,0.1,0.1,0.1C14.9,107.7,15.1,108.3,15.1,108.8"/>
		<path class="st9" d="M18.9,110.9c-0.3-0.2-0.4-0.5-0.5-0.8h-1c0.1,1.1,1.1,2,2.3,1.9c0,0,0,0,0.1,0c0.3,0,0.6,0,0.9-0.1
			c0.3-0.1,0.5-0.2,0.8-0.3c0.5-0.3,0.7-0.9,0.7-1.4c0-0.6-0.3-1.2-0.9-1.4c-0.3-0.1-0.6-0.2-0.9-0.3c-0.3-0.1-0.6-0.1-0.8-0.2
			c-0.2-0.1-0.5-0.2-0.7-0.3c-0.2-0.1-0.3-0.4-0.3-0.6c0-0.2,0.1-0.5,0.3-0.6c0.2-0.1,0.5-0.2,0.8-0.2c0.3,0,0.5,0.1,0.8,0.2
			c0.2,0.1,0.4,0.4,0.5,0.6h1c-0.1-0.5-0.3-1-0.8-1.3c-0.4-0.3-0.9-0.4-1.5-0.4c-0.5,0-1.1,0.2-1.5,0.5c-0.4,0.3-0.7,0.8-0.6,1.4
			c0,0.3,0.1,0.5,0.2,0.8c0.2,0.2,0.4,0.4,0.7,0.5c0.3,0.1,0.6,0.2,0.9,0.3c0.3,0.1,0.6,0.1,0.9,0.2c0.6,0.2,0.9,0.5,0.9,0.9
			c0,0.6-0.4,1-1.3,1C19.5,111.2,19.2,111.1,18.9,110.9"/>
		<path class="st9" d="M24.4,110.9c-0.3-0.2-0.4-0.5-0.5-0.8h-1c0.1,1.1,1.2,2,2.3,1.8c0,0,0,0,0.1,0c0.3,0,0.6,0,0.9-0.1
			c0.3-0.1,0.5-0.2,0.8-0.3c0.5-0.3,0.7-0.9,0.7-1.4c0-0.6-0.4-1.2-1-1.4c-0.3-0.1-0.6-0.2-0.9-0.3c-0.3-0.1-0.6-0.1-0.8-0.2
			c-0.2-0.1-0.5-0.2-0.7-0.3c-0.3-0.2-0.4-0.7-0.2-1c0-0.1,0.1-0.1,0.2-0.2c0.2-0.1,0.5-0.2,0.8-0.2c0.3,0,0.5,0.1,0.8,0.2
			c0.2,0.1,0.4,0.4,0.5,0.6h1c0-0.5-0.3-0.9-0.6-1.3c-0.4-0.3-0.9-0.4-1.4-0.4c-0.5,0-1.1,0.2-1.5,0.5c-0.4,0.3-0.7,0.8-0.6,1.4
			c0,0.3,0.1,0.5,0.2,0.8c0.2,0.2,0.4,0.4,0.7,0.5c0.3,0.1,0.6,0.2,0.9,0.3c0.3,0.1,0.6,0.1,0.9,0.2c0.6,0.2,0.9,0.5,0.9,0.9
			c0,0.6-0.4,1-1.3,1C25,111.2,24.7,111.1,24.4,110.9"/>
		<path class="st9" d="M33.8,108.4h-4.2c0.1-0.2,0.2-0.5,0.3-0.7c0.4-0.7,1.1-1.1,1.8-1.1c0.5,0,1,0.2,1.3,0.5
			C33.4,107.4,33.7,107.9,33.8,108.4 M34.8,108.7c0-0.8-0.4-1.6-1-2.1c-0.6-0.6-1.4-0.9-2.2-0.9c-0.8,0-1.6,0.4-2.2,1
			c-1.2,1.2-1.2,3.2,0,4.4c0,0,0,0,0,0c0.3,0.3,0.6,0.5,1,0.7c0.4,0.2,0.9,0.3,1.4,0.2c0.6,0,1.2-0.2,1.7-0.5
			c0.5-0.3,0.9-0.8,1.2-1.4h-1.2c-0.2,0.3-0.5,0.5-0.8,0.7c-0.3,0.2-0.6,0.2-1,0.2c-0.5,0-1-0.2-1.4-0.5c-0.4-0.3-0.7-0.8-0.7-1.3
			h5.3L34.8,108.7z"/>
		<path class="st9" d="M40.5,111.8h1v-3.8c0-0.6-0.2-1.2-0.5-1.7c-0.2-0.2-0.4-0.4-0.7-0.5c-0.3-0.1-0.7-0.2-1-0.2
			c-0.4,0-0.8,0.1-1.1,0.3c-0.3,0.2-0.6,0.5-0.8,0.8v-1h-1v6h1v-2.5c0-0.6,0.1-1.3,0.4-1.8c0.2-0.2,0.4-0.5,0.6-0.6
			c0.3-0.2,0.6-0.2,1-0.2c0.3,0,0.7,0.1,0.9,0.4c0.2,0.3,0.3,0.6,0.3,1L40.5,111.8z"/>
		<path class="st9" d="M43.9,112.6h-1c0.3,1.5,1.6,2.6,3.1,2.6c1.7,0,3.1-1.4,3.1-3.1v-6.3h-1v1l-0.2-0.2c-0.5-0.6-1.3-1-2.1-1
			c-0.8,0-1.6,0.4-2.1,1c-0.5,0.6-0.8,1.4-0.8,2.2c0,0.8,0.3,1.6,0.8,2.2c0.5,0.6,1.3,1,2.1,1c0.8,0,1.6-0.3,2.1-1l0.2-0.2v1.3
			c0,0.6-0.2,1.1-0.6,1.5c-0.4,0.4-0.9,0.6-1.5,0.6c-0.6,0-1.1-0.2-1.5-0.6C44.2,113.3,44,113,43.9,112.6 M48.1,108.8
			c0,0.6-0.2,1.1-0.6,1.5c-0.8,0.8-2.1,0.9-2.9,0.1c0,0-0.1-0.1-0.1-0.1c-0.4-0.4-0.6-1-0.6-1.5c0-0.6,0.2-1.1,0.6-1.5
			c0.8-0.8,2.1-0.9,2.9-0.1c0,0,0.1,0.1,0.1,0.1C47.9,107.7,48.1,108.2,48.1,108.8"/>
		<path class="st9" d="M55.9,108.4h-4.2c0.1-0.2,0.1-0.5,0.3-0.7c0.6-1,1.8-1.4,2.9-0.8c0.1,0.1,0.2,0.1,0.3,0.2
			C55.6,107.4,55.8,107.9,55.9,108.4 M56.9,108.7c0-0.8-0.4-1.6-1-2.1c-0.6-0.6-1.3-0.9-2.1-0.9c-0.8,0-1.6,0.4-2.2,1
			c-1.2,1.2-1.2,3.2,0,4.4c0,0,0,0,0,0c0.3,0.3,0.6,0.5,1,0.7c0.4,0.2,0.9,0.3,1.4,0.2c0.6,0,1.1-0.2,1.6-0.5c0.5-0.3,1-0.8,1.2-1.4
			h-1.1c-0.2,0.3-0.5,0.5-0.8,0.7c-0.3,0.2-0.6,0.2-1,0.2c-0.5,0-1-0.2-1.4-0.5c-0.4-0.3-0.7-0.8-0.7-1.3h5.3L56.9,108.7z"/>
		<path class="st9" d="M61.6,107.1v-1.2c-0.2-0.1-0.4-0.1-0.6-0.1c-0.7,0-1.3,0.5-1.5,1.1v0.3v-1.2h-1v6h1v-3c0-0.5,0.1-0.9,0.3-1.3
			c0.1-0.2,0.3-0.4,0.4-0.5c0.2-0.1,0.4-0.2,0.6-0.2C61.2,106.8,61.4,106.9,61.6,107.1"/>
		<path class="st9" d="M67.4,105.8h-1v6h1V105.8z M67.4,103.8c-0.1-0.1-0.3-0.2-0.4-0.2c-0.2,0-0.3,0.1-0.4,0.2
			c-0.1,0.1-0.2,0.3-0.2,0.4c0,0.2,0.1,0.3,0.2,0.4c0.1,0.1,0.3,0.2,0.4,0.2c0.3,0,0.6-0.2,0.6-0.6c0,0,0,0,0,0
			C67.5,104,67.5,103.9,67.4,103.8"/>
		<path class="st9" d="M73.6,111.8h1v-3.8c0-0.6-0.2-1.2-0.5-1.7c-0.2-0.2-0.4-0.4-0.7-0.5c-0.3-0.1-0.7-0.2-1-0.2
			c-0.4,0-0.8,0.1-1.1,0.3c-0.3,0.2-0.6,0.5-0.8,0.8v-1h-1v6h1v-2.5c0-0.6,0.1-1.3,0.4-1.8c0.2-0.2,0.4-0.5,0.6-0.6
			c0.3-0.2,0.6-0.2,1-0.2c0.3,0,0.7,0.1,0.9,0.4c0.2,0.3,0.3,0.6,0.3,1V111.8z"/>
		<path class="st9" d="M79.6,102.5v-0.9h-0.7c-0.5,0-1.1,0.1-1.4,0.5c-0.3,0.4-0.4,0.9-0.4,1.4v2.3h-1.2v0.9h1.2v5.1h1v-5.1h1.6
			v-0.9H78v-2.6c0-0.2,0-0.4,0.2-0.5c0.2-0.2,0.4-0.3,0.6-0.2H79.6z"/>
		<path class="st9" d="M86.9,108.8c0-0.8-0.4-1.6-1-2.2c-1.2-1.2-3.1-1.2-4.4-0.1c0,0,0,0-0.1,0.1c-1.2,1.2-1.2,3.2,0,4.4
			c0,0,0,0,0,0c1.2,1.2,3.2,1.2,4.4,0C86.5,110.4,86.9,109.6,86.9,108.8 M85.9,108.8c0,1.2-1,2.2-2.2,2.2c-0.6,0-1.1-0.2-1.5-0.6
			c-0.4-0.4-0.7-0.9-0.6-1.5c0-0.6,0.2-1.1,0.6-1.5c0.4-0.4,1-0.6,1.5-0.6C84.9,106.6,85.9,107.6,85.9,108.8"/>
		<path class="st9" d="M99.2,108.2l-0.8-0.5l-0.5,0.6l-0.5,0.6l-1.9-2.4l0.5-0.4c0.6-0.4,1-1.1,1.1-1.8c0-0.5-0.2-1-0.6-1.4
			c-0.4-0.4-0.9-0.5-1.4-0.5c-0.5,0-1.1,0.2-1.4,0.6c-0.4,0.4-0.6,0.9-0.5,1.4c0.1,0.7,0.4,1.4,1,1.9c-0.3,0.2-0.5,0.4-0.8,0.6
			c-0.8,0.5-1.3,1.4-1.3,2.3c0,0.7,0.2,1.4,0.8,1.9c0.2,0.2,0.5,0.4,0.9,0.6c0.4,0.1,0.7,0.2,1.1,0.2c0.5,0,1-0.2,1.5-0.5
			c0.4-0.3,0.8-0.6,1.1-1l1,1.3h1.3l-1.6-2.1C98.6,108.9,99,108.4,99.2,108.2 M94.6,105.6c-0.4-0.3-0.6-0.8-0.6-1.2
			c0-0.3,0.1-0.7,0.3-0.9c0.2-0.2,0.5-0.3,0.7-0.2c0.3,0,0.5,0.1,0.8,0.3c0.2,0.2,0.3,0.5,0.3,0.8c0,0.4-0.2,0.7-0.4,1
			c-0.1,0.1-0.3,0.2-0.4,0.3l-0.4,0.3C94.8,105.9,94.7,105.7,94.6,105.6 M94.7,107.1l2,2.6c-0.1,0.1-0.3,0.3-0.4,0.4
			c-0.4,0.5-1,0.8-1.6,0.8c-0.5,0-0.9-0.2-1.2-0.5c-0.3-0.3-0.5-0.8-0.5-1.2c0.1-0.5,0.3-0.9,0.7-1.2
			C93.9,107.7,94.3,107.4,94.7,107.1"/>
		<path class="st9" d="M111,105.3c0-0.7-0.3-1.4-0.9-1.9c-0.6-0.5-1.3-0.8-2.1-0.8h-2.9v9.2h1v-3.7h1.1l2.7,3.6h1.3l-2.8-3.6
			c0.7,0,1.3-0.3,1.8-0.8C110.8,106.9,111.1,106.1,111,105.3 M106.1,107.3v-3.8h2.1c0.5,0,1,0.2,1.3,0.5c0.3,0.4,0.5,0.8,0.5,1.3
			c0,0.5-0.2,1-0.5,1.4c-0.3,0.4-0.8,0.6-1.3,0.5L106.1,107.3z"/>
		<path class="st9" d="M118.4,108.8c0-0.8-0.3-1.6-0.9-2.2c-1.2-1.2-3.1-1.2-4.4-0.1c0,0,0,0-0.1,0.1c-1.2,1.2-1.2,3.2,0,4.4
			c0,0,0,0,0,0c1.2,1.2,3.2,1.2,4.4,0C118,110.4,118.4,109.6,118.4,108.8 M117.4,108.8c0,0.6-0.2,1.1-0.6,1.5
			c-0.4,0.4-1,0.7-1.5,0.6c-0.6,0-1.1-0.2-1.5-0.6c-0.4-0.4-0.7-0.9-0.6-1.5c0-0.6,0.2-1.1,0.6-1.5c0.4-0.4,1-0.6,1.5-0.6
			C116.4,106.6,117.4,107.6,117.4,108.8"/>
		<path class="st9" d="M124.1,110.8v1h1v-5.9h-1v2.5c0,0.7-0.1,1.4-0.5,1.9c-0.4,0.5-1,0.8-1.6,0.7c-0.3,0-0.7-0.1-0.9-0.4
			c-0.2-0.3-0.3-0.6-0.3-1v-3.8h-1v3.7c0,0.6,0.2,1.2,0.6,1.7c0.4,0.4,1,0.7,1.6,0.6C122.9,111.9,123.7,111.5,124.1,110.8"/>
		<polygon class="st9" points="126.1,106.7 127.6,106.7 127.6,111.8 128.6,111.8 128.6,106.7 130.1,106.7 130.1,105.8 128.6,105.8 
			128.6,103.5 127.6,103.5 127.6,105.8 126.1,105.8 		"/>
		<path class="st9" d="M136.2,108.4H132c0.1-0.2,0.1-0.5,0.3-0.7c0.6-1,1.8-1.4,2.9-0.8c0.1,0.1,0.2,0.1,0.3,0.2
			C135.8,107.4,136.1,107.9,136.2,108.4 M137.2,108.7c0-0.8-0.4-1.6-1-2.1c-0.6-0.6-1.4-0.9-2.2-0.9c-0.8,0-1.6,0.4-2.2,1
			c-1.2,1.2-1.2,3.2,0,4.4c0,0,0,0,0,0c0.3,0.3,0.6,0.5,1,0.7c0.4,0.2,0.9,0.2,1.4,0.2c0.6,0,1.1-0.2,1.6-0.5
			c0.5-0.3,0.9-0.8,1.2-1.4h-1.1c-0.2,0.3-0.5,0.5-0.8,0.7c-0.3,0.2-0.6,0.2-1,0.2c-0.5,0-1-0.2-1.4-0.5c-0.4-0.3-0.7-0.8-0.7-1.3
			h5.3V108.7z"/>
		<path class="st9" d="M147.6,108.8c0,0.6-0.2,1.1-0.6,1.5c-0.8,0.8-2.1,0.9-2.9,0.1c0,0-0.1-0.1-0.1-0.1c-0.4-0.4-0.6-1-0.6-1.5
			c0-0.6,0.2-1.1,0.6-1.5c0.8-0.8,2.1-0.9,2.9-0.1c0,0,0.1,0.1,0.1,0.1C147.3,107.7,147.6,108.2,147.6,108.8 M143.4,115.2v-4.4
			l0.2,0.2c1,1.1,2.7,1.3,3.9,0.3c0.1-0.1,0.2-0.2,0.3-0.3c0.5-0.6,0.8-1.4,0.8-2.2c0-0.8-0.3-1.6-0.8-2.2c-1-1.1-2.7-1.3-3.9-0.3
			c-0.1,0.1-0.2,0.2-0.3,0.3l-0.2,0.2v-1h-1v9.4L143.4,115.2z"/>
		<rect x="150.1" y="101.6" class="st9" width="0.9" height="10.2"/>
		<path class="st9" d="M158.8,111.8v-6h-1v1l-0.2-0.2c-1-1.1-2.7-1.3-3.9-0.3c-0.1,0.1-0.2,0.2-0.3,0.3c-0.5,0.6-0.8,1.4-0.8,2.2
			c0,0.8,0.3,1.6,0.8,2.2c1,1.1,2.7,1.3,3.9,0.3c0.1-0.1,0.2-0.2,0.3-0.3l0.2-0.2v1L158.8,111.8z M157.9,108.8
			c0,0.6-0.2,1.1-0.6,1.5c-0.8,0.8-2.1,0.9-2.9,0.1c0,0-0.1-0.1-0.1-0.1c-0.4-0.4-0.6-1-0.6-1.5c0-0.6,0.2-1.1,0.6-1.5
			c0.8-0.8,2.1-0.9,2.9-0.1c0,0,0.1,0.1,0.1,0.1C157.6,107.7,157.9,108.2,157.9,108.8"/>
		<path class="st9" d="M165,111.8h1v-3.8c0-0.6-0.2-1.2-0.5-1.7c-0.2-0.2-0.4-0.4-0.7-0.5c-0.3-0.1-0.7-0.2-1-0.2
			c-0.4,0-0.8,0.1-1.1,0.3c-0.3,0.2-0.6,0.5-0.8,0.8v-1h-1v6h1v-2.5c0-0.6,0.1-1.3,0.4-1.8c0.2-0.2,0.4-0.5,0.6-0.6
			c0.3-0.2,0.6-0.2,1-0.2c0.3,0,0.7,0.1,0.9,0.4c0.2,0.3,0.3,0.6,0.3,1V111.8z"/>
		<path class="st9" d="M171.9,111.8h1v-3.8c0-0.6-0.2-1.2-0.5-1.7c-0.2-0.2-0.4-0.4-0.7-0.5c-0.3-0.1-0.7-0.2-1-0.2
			c-0.4,0-0.8,0.1-1.1,0.3c-0.3,0.2-0.6,0.5-0.8,0.8v-1h-1v6h1v-2.5c0-0.6,0.1-1.3,0.4-1.8c0.2-0.2,0.4-0.5,0.6-0.6
			c0.3-0.2,0.6-0.2,1-0.2c0.3,0,0.7,0.1,0.9,0.4c0.2,0.3,0.3,0.6,0.3,1L171.9,111.8z"/>
		<path class="st9" d="M175.7,105.8h-1v6h1V105.8z M175.6,103.8c-0.1-0.1-0.3-0.2-0.4-0.2c-0.2,0-0.3,0.1-0.4,0.2
			c-0.1,0.1-0.2,0.3-0.2,0.4c0,0.2,0.1,0.3,0.2,0.4c0.1,0.1,0.3,0.2,0.4,0.2c0.2,0,0.3-0.1,0.4-0.2c0.1-0.1,0.2-0.3,0.2-0.4
			C175.8,104,175.7,103.9,175.6,103.8"/>
		<path class="st9" d="M181.9,111.8h1v-3.8c0-0.6-0.2-1.2-0.5-1.7c-0.2-0.2-0.4-0.4-0.7-0.5c-0.3-0.1-0.7-0.2-1-0.2
			c-0.4,0-0.8,0.1-1.1,0.3c-0.3,0.2-0.6,0.5-0.8,0.8v-1h-1v6h1v-2.5c0-0.6,0.1-1.3,0.4-1.8c0.2-0.2,0.4-0.5,0.6-0.6
			c0.3-0.2,0.6-0.2,1-0.2c0.3,0,0.7,0.1,0.9,0.4c0.2,0.3,0.3,0.6,0.3,1L181.9,111.8z"/>
		<path class="st9" d="M185.3,112.6h-1c0.3,1.5,1.6,2.6,3.1,2.6c1.7,0,3.1-1.4,3.1-3.1v-6.3h-1v1l-0.2-0.2c-0.5-0.6-1.3-1-2.1-1
			c-0.8,0-1.6,0.4-2.1,1c-0.5,0.6-0.8,1.4-0.8,2.2c0,0.8,0.3,1.6,0.8,2.2c0.5,0.6,1.3,1,2.1,1c0.8,0,1.6-0.3,2.1-1l0.2-0.1v1.3
			c0,0.6-0.2,1.1-0.6,1.5c-0.4,0.4-0.9,0.6-1.5,0.6c-0.6,0-1.1-0.2-1.5-0.6C185.6,113.4,185.4,113,185.3,112.6 M189.5,108.8
			c0,0.6-0.2,1.1-0.6,1.5c-0.8,0.8-2.1,0.9-2.9,0.1c0,0-0.1-0.1-0.1-0.1c-0.4-0.4-0.6-1-0.6-1.5c0-0.6,0.2-1.1,0.6-1.5
			c0.8-0.8,2.1-0.9,2.9-0.1c0,0,0.1,0.1,0.1,0.1C189.3,107.7,189.5,108.2,189.5,108.8"/>
		<path class="st10" d="M177,71.5v11c0,1.2,0.1,2.3,0.3,3.5c0.2,1,0.6,2,1.3,2.8c0.6,0.8,1.5,1.4,2.5,1.8c1.3,0.5,2.6,0.7,4,0.6
			c0.8,0,1.8-0.1,2.9-0.2c1.1-0.1,2.2-0.4,3.3-0.8l-1.1-5.4c-0.6,0.2-1.3,0.3-1.9,0.4c-0.5,0.1-1.1,0.1-1.6,0.1
			c-1.4,0-2.3-0.3-2.7-1c-0.4-0.8-0.6-1.8-0.6-2.7V71.5h6v-5.1h-6v-6.2h-5.1l-1.1,6.2H174v5.1H177z M168.1,83.3
			c-0.7,0.8-1.6,1.3-2.7,1.7c-0.8,0.3-1.6,0.4-2.4,0.4c-0.5,0-1.1-0.1-1.6-0.2c-0.5-0.1-1-0.4-1.4-0.7c-0.4-0.4-0.7-0.8-1-1.3
			c-0.3-0.6-0.4-1.3-0.4-2v-4.9c0-0.7,0.1-1.3,0.4-1.9c0.2-0.5,0.6-1,1-1.3c0.4-0.3,0.9-0.6,1.4-0.7c0.5-0.1,1-0.2,1.5-0.2
			c0.7,0,1.4,0.1,2.1,0.3c1.1,0.4,2.1,1,2.9,1.9l3.6-4.6c-0.7-0.7-1.4-1.3-2.2-1.8c-0.7-0.4-1.5-0.7-2.3-1c-0.8-0.2-1.6-0.4-2.4-0.4
			c-0.8-0.1-1.6-0.1-2.3-0.1c-1.2,0-2.5,0.2-3.7,0.6c-1.2,0.4-2.3,0.9-3.2,1.7c-0.9,0.7-1.7,1.7-2.2,2.7c-0.6,1.2-0.9,2.6-0.9,3.9
			v7.3c0,1.3,0.3,2.7,0.8,3.9c0.5,1.1,1.3,2,2.2,2.8c1,0.8,2.1,1.3,3.2,1.7c1.3,0.4,2.6,0.6,3.9,0.6c0.8,0,1.6,0,2.4-0.1
			c0.8-0.1,1.6-0.3,2.4-0.5c0.8-0.3,1.6-0.7,2.3-1.1c0.8-0.5,1.6-1.1,2.2-1.8L168.1,83.3z M141.5,83.7c-0.8,0.4-1.7,0.8-2.5,1.2
			c-1,0.4-2.1,0.6-3.1,0.6c-0.8,0.1-1.5-0.2-2.2-0.6c-0.5-0.4-0.7-1-0.7-1.6c0-0.4,0.1-0.8,0.3-1.2c0.2-0.3,0.5-0.6,0.8-0.7
			c0.3-0.2,0.7-0.3,1-0.3c0.4-0.1,0.8-0.1,1.2-0.1h5.3L141.5,83.7z M141.6,89l0.4,1.9h5.8V75.6c0-3.2-0.8-5.6-2.5-7.2
			c-1.6-1.6-4.2-2.4-7.8-2.4c-1.6,0-3.2,0.2-4.8,0.6c-1.9,0.5-3.7,1.3-5.2,2.5l2.8,4.6c1-0.8,2.3-1.4,3.6-1.7c1-0.2,1.9-0.3,2.9-0.3
			c1.2-0.1,2.5,0.2,3.5,0.9c0.7,0.7,1,1.6,1,2.6v1H135c-1,0-2,0.1-3,0.4c-1,0.2-2,0.7-2.9,1.3c-0.9,0.6-1.6,1.4-2.2,2.3
			c-0.6,1.1-0.9,2.2-0.8,3.5c-0.1,2,0.6,4,2.1,5.5c1.6,1.4,3.7,2.1,5.8,2c1.1,0,2.2-0.2,3.3-0.5c1.4-0.4,2.8-1,4-1.8L141.6,89z
			 M116.2,90.9h7.7l-10.8-17.5l10.1-16.7h-7.6l-6.1,11l-6.1-11h-7.8l10.2,16.7L94.9,90.9h7.7l6.8-11.8L116.2,90.9z M86.3,76.4H78
			v-0.3c-0.1-1.1,0.4-2.3,1.2-3c0.8-0.7,1.9-1.1,3-1.1c1.1,0,2.1,0.3,2.9,1c0.9,0.7,1.4,1.9,1.3,3V76.4z M92.6,80.5v-4.8
			c0-1.4-0.2-2.8-0.8-4.1c-0.5-1.1-1.3-2.1-2.2-2.9c-1-0.8-2.1-1.5-3.3-1.9c-1.4-0.4-2.8-0.7-4.2-0.6c-1.4,0-2.8,0.2-4.1,0.6
			c-1.2,0.4-2.3,1.1-3.3,1.9c-1,0.8-1.7,1.9-2.3,3.1c-0.6,1.3-0.8,2.7-0.8,4.1v6.3c0,1.4,0.3,2.8,0.9,4c0.6,1.1,1.4,2.1,2.4,2.8
			c1,0.8,2.2,1.3,3.5,1.7c1.3,0.4,2.7,0.6,4.1,0.6c0.8,0,1.6,0,2.4-0.1c0.8-0.1,1.6-0.3,2.3-0.5c0.8-0.3,1.6-0.6,2.3-1.1
			c0.8-0.5,1.6-1.1,2.3-1.8l-3.5-4.3c-0.9,0.8-2.1,1.4-3.3,1.7c-0.8,0.2-1.7,0.3-2.6,0.3c-0.6,0-1.1-0.1-1.7-0.2
			c-0.5-0.2-1-0.4-1.4-0.7c-0.4-0.3-0.8-0.8-1-1.3c-0.3-0.6-0.4-1.2-0.4-1.9v-0.8L92.6,80.5z"/>
	</g>
</g>
</svg>
